<svg width="584" height="521" viewBox="0 0 584 521" fill="none" xmlns="http://www.w3.org/2000/svg">
<rect x="6.5" y="6.34619" width="571" height="508" rx="22" fill="#FFCFB8"/>
<rect x="6.5" y="6.34619" width="571" height="508" rx="22" stroke="#FFE4D7" stroke-width="12"/>
<g clip-path="url(#clip0_1554_26596)">
<path d="M255.428 357.193L257.079 364.477C257.79 367.63 256.846 370.926 254.573 373.208C250.919 376.877 250.919 382.828 254.573 386.497L257.647 389.583L272.67 374.499L273.662 368.548L276.132 371.028L282.657 364.477L275.534 357.325L272.383 354.161L265.415 347.165L255.434 357.187L255.428 357.193Z" fill="#485925"/>
<path d="M199.087 187.033H180.345C180.345 190.522 182.235 193.56 185.039 195.188V201.211H193.765V195.524C196.916 194.005 199.093 190.774 199.093 187.033H199.087Z" fill="#EFBAA1"/>
<path d="M189.716 197.752C171.787 197.752 157.248 212.35 157.248 230.352H129.978V241.401H153.289C167.971 241.401 168.976 230.352 168.976 230.352L171.278 223.038L207.627 227.866L214.038 271.167L225.401 264.82L222.171 230.352C222.171 212.35 207.633 197.752 189.704 197.752H189.716Z" fill="#485925"/>
<path d="M198.662 172.729L213.834 195.314L200.361 199.403L194.865 176.711L198.662 172.729Z" fill="black"/>
<path d="M194.865 182.229C197.9 182.229 200.361 179.759 200.361 176.711C200.361 173.663 197.9 171.192 194.865 171.192C191.83 171.192 189.369 173.663 189.369 176.711C189.369 179.759 191.83 182.229 194.865 182.229Z" fill="black"/>
<path d="M189.716 177.618C184.537 177.618 180.345 181.833 180.345 187.027H199.087C199.087 181.827 194.889 177.618 189.716 177.618Z" fill="black"/>
<path d="M277.017 332.453C276.258 331.751 275.474 331.018 273.668 330.099C271.868 329.175 270.816 328.97 269.805 328.766C268.77 328.562 267.7 328.346 265.864 327.409C264.028 326.466 263.226 325.728 262.455 325.007C261.695 324.305 260.912 323.572 259.106 322.653C257.306 321.729 256.253 321.524 255.243 321.32C254.208 321.116 253.144 320.9 251.302 319.963C249.466 319.02 248.664 318.282 247.893 317.561C247.133 316.859 246.35 316.126 244.544 315.207C242.744 314.283 241.691 314.078 240.68 313.874C239.646 313.67 238.581 313.454 236.739 312.517C234.903 311.574 234.102 310.836 233.331 310.115C232.571 309.413 231.788 308.68 229.988 307.761C228.187 306.843 227.135 306.632 226.124 306.428C225.496 306.302 224.844 306.17 224.025 305.876C223.415 303.966 223.373 302.885 223.331 301.846C223.29 300.808 223.248 299.739 222.626 297.805C221.998 295.872 221.406 294.983 220.832 294.118C220.246 293.242 219.642 292.329 219.002 290.359C218.362 288.39 218.32 287.297 218.278 286.24C218.236 285.201 218.194 284.132 217.572 282.199C216.95 280.265 216.352 279.376 215.778 278.512C215.192 277.635 214.588 276.722 213.948 274.753C213.308 272.783 213.266 271.69 213.225 270.633C213.183 269.594 213.141 268.525 212.519 266.592C211.897 264.658 211.299 263.77 210.725 262.905C210.139 262.028 209.535 261.115 208.895 259.146C208.255 257.176 208.213 256.083 208.171 255.027C208.129 253.988 208.087 252.919 207.466 250.985C206.838 249.052 206.246 248.163 205.671 247.298C205.283 246.71 204.882 246.109 204.469 245.197C203.202 238.165 197.078 232.833 189.71 232.833C182.928 232.833 177.205 237.348 175.345 243.545H175.237C174.597 245.515 173.993 246.422 173.407 247.304C172.833 248.169 172.241 249.058 171.613 250.991C170.985 252.925 170.949 253.994 170.908 255.033C170.866 256.089 170.824 257.182 170.184 259.152C169.544 261.121 168.94 262.028 168.354 262.911C167.78 263.776 167.188 264.664 166.56 266.598C165.932 268.531 165.896 269.6 165.854 270.639C165.812 271.696 165.77 272.789 165.131 274.759C164.491 276.728 163.887 277.635 163.301 278.518C162.726 279.382 162.134 280.271 161.506 282.205C160.878 284.138 160.843 285.207 160.801 286.246C160.759 287.303 160.717 288.396 160.077 290.365C159.437 292.335 158.833 293.241 158.247 294.124C157.673 294.989 157.081 295.878 156.453 297.811C155.831 299.745 155.789 300.814 155.747 301.852C155.705 302.909 155.664 304.002 155.024 305.972C154.384 307.941 153.78 308.848 153.194 309.731C152.62 310.596 152.028 311.484 151.4 313.418C150.772 315.351 150.736 316.42 150.694 317.459C150.652 318.516 150.61 319.609 149.97 321.578C149.33 323.548 148.726 324.455 148.14 325.338C147.566 326.202 146.974 327.091 146.346 329.025C145.718 330.958 145.676 332.027 145.64 333.066C145.599 334.123 145.557 335.216 144.917 337.185C144.277 339.155 143.673 340.061 143.087 340.944C142.513 341.809 141.921 342.698 141.293 344.631C140.665 346.565 140.623 347.634 140.587 348.672C140.545 349.729 140.503 350.822 139.863 352.792C139.224 354.761 138.62 355.674 138.033 356.551C137.459 357.416 136.867 358.304 136.239 360.238C135.611 362.171 135.57 363.24 135.534 364.279C135.492 365.336 135.45 366.429 134.81 368.398H135.277H186.349V262.593C187.419 262.839 188.538 262.971 189.686 262.971C190.715 262.971 191.713 262.869 192.682 262.671L197.592 316.973C197.795 319.225 198.722 321.344 200.235 323.02L243.958 371.461L280.073 335.198L280.402 334.867C278.566 333.924 277.765 333.186 276.993 332.465L277.017 332.453ZM222.949 305.425C222.709 305.317 222.458 305.197 222.183 305.059L222.949 305.425Z" fill="#2E2811"/>
<path d="M159.36 368.38L155.395 374.703C153.684 377.436 150.688 379.099 147.471 379.099C142.304 379.099 138.111 383.308 138.111 388.497V392.862H159.354L164.246 389.355V392.862H173.467V368.38H159.348H159.36Z" fill="#485925"/>
<path d="M214.672 277.923L215.048 270.615L223.475 265.727L229.168 275.617C229.431 275.851 229.593 276.152 229.658 276.47L229.694 276.536L229.67 276.548C229.736 276.974 229.623 277.419 229.33 277.779C228.809 278.409 227.894 278.523 227.236 278.061C227.38 278.541 227.284 279.088 226.943 279.502C226.447 280.103 225.598 280.235 224.952 279.851C225.006 280.271 224.898 280.709 224.611 281.057C224.061 281.724 223.08 281.814 222.416 281.262C222.404 281.25 222.398 281.244 222.386 281.232C222.518 281.706 222.422 282.234 222.087 282.643C221.537 283.309 220.556 283.399 219.893 282.847C219.54 282.553 219.348 282.132 219.33 281.706L217.662 277.25L216.49 278.674C216.274 278.938 215.939 279.076 215.605 279.046C215.036 278.992 214.618 278.493 214.672 277.923Z" fill="#EFBAA1"/>
<path d="M123.866 227.068L129.984 231.055V240.831H118.603C118.274 240.939 117.927 240.933 117.622 240.831H117.545V240.801C117.15 240.645 116.815 240.327 116.654 239.894C116.367 239.126 116.725 238.273 117.461 237.937C116.977 237.816 116.552 237.468 116.367 236.958C116.097 236.225 116.408 235.421 117.066 235.054C116.677 234.892 116.355 234.58 116.199 234.154C115.9 233.343 116.313 232.442 117.12 232.142C117.132 232.142 117.144 232.136 117.162 232.13C116.689 232.004 116.277 231.661 116.097 231.163C115.798 230.352 116.211 229.452 117.018 229.151C117.449 228.989 117.909 229.037 118.286 229.236L122.963 230.01L122.323 228.281C122.203 227.962 122.251 227.602 122.449 227.326C122.777 226.858 123.417 226.744 123.884 227.074L123.866 227.068Z" fill="#EFBAA1"/>
<path d="M212.555 217.886H168.133V240.903H212.555V217.886Z" fill="#485925"/>
<path d="M320.228 330.48C325.676 330.48 330.102 334.924 330.102 340.394V364.72H310.349V340.394C310.349 334.924 314.774 330.48 320.222 330.48H320.228Z" fill="#5572D6"/>
<path d="M310.349 344.958C314.959 344.958 318.697 341.205 318.697 336.575C318.697 331.945 314.959 328.192 310.349 328.192C305.738 328.192 302 331.945 302 336.575C302 341.205 305.738 344.958 310.349 344.958Z" stroke="#5572D6" stroke-width="2" stroke-miterlimit="10"/>
<path d="M327.548 352.68H314.475V360.102H327.548V352.68Z" fill="black"/>
<path d="M278.871 379.868V391.343H259.01C259.01 388.983 260.912 387.074 263.262 387.074H265.463C267.191 387.074 268.746 386.023 269.398 384.419L271.252 379.868H278.877H278.871Z" fill="black"/>
<path d="M311.655 370.974L319.741 379.093L305.699 393.192C304.037 391.523 304.037 388.821 305.699 387.157L307.254 385.596C308.474 384.371 308.839 382.521 308.169 380.924L306.273 376.391L311.661 370.98L311.655 370.974Z" fill="black"/>
<path d="M282.83 320.425H267.239V379.867H282.83V320.425Z" fill="black"/>
<path d="M303.714 348.546L293.864 313.85L278.871 318.144L288.882 353.41L303.409 380.324L316.242 371.449L303.714 348.546Z" fill="black"/>
<path d="M289.695 277.983H270.307C270.307 282.342 271.766 286.029 275.695 287.272V291.5H284.104V287.272C288.039 286.035 289.689 282.342 289.689 277.983H289.695Z" fill="#EE9367"/>
<path d="M280.001 268.249C274.649 268.249 270.307 272.609 270.307 277.983H289.695C289.695 272.609 285.354 268.249 280.001 268.249Z" fill="black"/>
<path d="M231.381 277.965L232.876 281.88L229.593 286.408L224.324 282.559C224.133 282.499 223.977 282.379 223.869 282.228L223.834 282.204L223.846 282.192C223.714 281.982 223.666 281.724 223.738 281.472C223.864 281.021 224.318 280.745 224.767 280.835C224.581 280.613 224.503 280.313 224.587 280.013C224.707 279.58 225.119 279.316 225.55 279.364C225.424 279.16 225.377 278.902 225.448 278.65C225.58 278.175 226.076 277.893 226.549 278.031C226.555 278.031 226.567 278.031 226.573 278.037C226.393 277.821 226.321 277.521 226.405 277.226C226.537 276.752 227.033 276.47 227.506 276.608C227.757 276.68 227.954 276.854 228.062 277.076L229.963 279.016L230.251 277.995C230.304 277.809 230.442 277.659 230.627 277.593C230.938 277.485 231.273 277.653 231.375 277.965H231.381Z" fill="#EE9367"/>
<path d="M301.249 332.327L302.356 328.286L307.666 326.586L309.64 332.825C309.759 332.988 309.813 333.18 309.813 333.366L309.825 333.408H309.807C309.789 333.66 309.676 333.894 309.466 334.056C309.095 334.345 308.575 334.297 308.258 333.954C308.276 334.243 308.163 334.531 307.917 334.723C307.564 334.999 307.074 334.969 306.757 334.669C306.739 334.909 306.626 335.143 306.416 335.299C306.028 335.606 305.465 335.534 305.166 335.143C305.166 335.137 305.154 335.131 305.154 335.125C305.166 335.408 305.053 335.69 304.814 335.876C304.425 336.182 303.863 336.11 303.564 335.72C303.402 335.51 303.348 335.251 303.39 335.011L303.001 332.315L302.17 332.964C302.015 333.084 301.811 333.12 301.626 333.06C301.315 332.964 301.142 332.627 301.237 332.315L301.249 332.327Z" fill="#EE9367"/>
<path d="M285.868 326.971H274.134C262.042 326.971 253.173 315.543 256.127 303.768C258.209 295.481 265.624 289.674 274.134 289.674H285.868C294.18 289.674 301.476 295.223 303.737 303.251C307.086 315.153 298.181 326.965 285.868 326.965V326.971Z" fill="#B7ACF8"/>
<path d="M250.68 301.27L228.893 287.296L233.707 280.583L252.599 292.797C253.616 293.451 254.854 293.674 256.032 293.403L268.842 290.461L269.655 300.027L253.628 301.948C252.599 302.074 251.553 301.834 250.68 301.27Z" fill="#B7ACF8"/>
<path d="M301.372 302.767L293.94 305.14L301.373 328.608L308.804 326.235L301.372 302.767Z" fill="#B7ACF8"/>
<path d="M165.669 277.755H129.834C128.471 277.755 127.269 276.866 126.868 275.557L119.279 250.985C118.657 248.98 120.152 246.944 122.245 246.944H172.307C174.352 246.944 175.841 248.895 175.303 250.877L168.665 275.449C168.3 276.806 167.068 277.755 165.669 277.755Z" fill="white"/>
<path d="M163.223 277.262L153.074 232.616C152.255 229.914 149.779 228.076 146.926 228.076H146.22C143.368 228.076 141.041 229.476 140.21 232.22H138.942C139.929 228.971 142.836 226.875 146.22 226.875H146.926C150.311 226.875 153.247 229.061 154.228 232.31L164.389 276.998L163.223 277.268V277.262Z" fill="#FF8A53"/>
<path d="M129.918 277.262L128.752 276.998L136.658 242.296H137.878L129.918 277.262Z" fill="#FF8A53"/>
<g clip-path="url(#clip1_1554_26596)">
<path d="M410.016 321.426V293.505H381.647V316.437C381.647 323.259 384.315 329.806 389.079 334.673L419.714 365.956L430.176 357.148L410.01 321.421L410.016 321.426Z" fill="#EE9367"/>
<path d="M439.845 257.707H328.99C328.99 276.774 338.571 293.604 353.161 303.618L361.043 368.637H374.705L381.653 304.578C432.716 304.578 439.851 277.4 439.851 257.707H439.845Z" fill="#EE9367"/>
<path d="M367.355 268.769L344.188 318.539H419.323L404.277 267.656L367.355 268.769Z" fill="#485925"/>
<path d="M430.176 357.154L419.714 365.961L422.394 374.347C422.943 376.069 422.832 377.363 422.172 378.534C421.29 380.098 419.562 380.994 417.77 381.058L411.616 381.287C407.412 381.439 404.125 384.982 404.283 389.204H419.65C420.823 389.204 421.962 388.823 422.907 388.126L443.342 372.907L430.176 357.166V357.154Z" fill="black"/>
<path d="M372.708 185.496V193.197C372.708 196.242 374.588 198.842 377.25 199.896V205.161H385.833V199.896C388.495 198.842 390.375 196.242 390.375 193.197V185.496H372.708Z" fill="#EE9367"/>
<path d="M384.42 202.109C353.809 202.109 328.99 227.003 328.99 257.707C328.464 290.114 353.155 303.618 353.155 303.618L374.828 289.587V268.775H388.227V289.587L414.231 304.578C414.231 304.578 438.794 291.432 439.845 257.707C439.845 227.003 415.031 202.115 384.42 202.115V202.109Z" fill="#5572D6"/>
<path d="M388.46 202.18C388.46 202.18 386.668 201.957 382.056 201.957C378.115 201.957 374.833 202.707 374.833 202.707V268.769H388.46V202.18Z" fill="white"/>
<path d="M383.194 178.293H379.889C375.925 178.293 372.708 181.52 372.708 185.496H390.375C390.375 181.52 387.158 178.293 383.194 178.293Z" fill="black"/>
<path d="M374.699 368.638V389.181H331.617C331.617 384.958 335.027 381.539 339.236 381.539H350.668C353.763 381.539 356.547 379.659 357.721 376.789L361.037 368.638H374.699Z" fill="black"/>
<path d="M432.71 247.957H423.38V265.981H432.71V247.957Z" fill="#9AC6EF"/>
<path d="M344.187 247.957H334.857V265.981H344.187V247.957Z" fill="#9AC6EF"/>
<path d="M388.46 202.25C388.46 202.25 394.778 202.543 399.548 204.212L388.46 215.116V202.256V202.25Z" fill="#9AC6EF"/>
<path d="M374.834 202.941C374.834 202.941 368.703 203.427 364.237 205.916L374.834 216.82V202.947V202.941Z" fill="#9AC6EF"/>
<path d="M386.242 209.687L382.464 264.359L379.639 264.365L377.046 209.687" fill="#9AC6EF"/>
<path d="M381.647 214.296C384.185 214.296 386.242 212.233 386.242 209.687C386.242 207.142 384.185 205.079 381.647 205.079C379.109 205.079 377.052 207.142 377.052 209.687C377.052 212.233 379.109 214.296 381.647 214.296Z" fill="black"/>
<path d="M347.988 271.855L344.181 265.976H334.852V276.915C334.746 277.231 334.752 277.565 334.852 277.857V277.934H334.881C335.033 278.314 335.336 278.636 335.751 278.789C336.486 279.064 337.298 278.718 337.619 278.016C337.73 278.484 338.069 278.888 338.553 279.07C339.254 279.327 340.019 279.029 340.375 278.396C340.527 278.771 340.83 279.081 341.233 279.234C342.004 279.521 342.862 279.128 343.148 278.349C343.148 278.338 343.154 278.326 343.16 278.308C343.276 278.765 343.609 279.158 344.082 279.333C344.853 279.62 345.711 279.228 345.997 278.449C346.149 278.033 346.108 277.594 345.915 277.231L345.174 272.739L346.826 273.354C347.13 273.465 347.474 273.424 347.737 273.237C348.181 272.921 348.292 272.306 347.976 271.855H347.988Z" fill="#EE9367"/>
<path d="M414.062 287.35C414.062 279.819 420.152 273.711 427.66 273.711C435.168 273.711 441.258 279.819 441.258 287.35" stroke="#B7ACF8" stroke-miterlimit="10"/>
<path d="M454.984 287.35H400.324V323.23H454.984V287.35Z" fill="black"/>
<path d="M419.504 271.855L423.31 265.976H432.64V276.915C432.745 277.231 432.74 277.565 432.64 277.857V277.934H432.611C432.459 278.314 432.156 278.636 431.741 278.789C431.006 279.064 430.194 278.718 429.873 278.016C429.762 278.484 429.423 278.888 428.939 279.07C428.238 279.327 427.473 279.029 427.117 278.396C426.965 278.771 426.662 279.081 426.259 279.234C425.488 279.521 424.63 279.128 424.344 278.349C424.344 278.338 424.338 278.326 424.332 278.308C424.215 278.765 423.883 279.158 423.41 279.333C422.639 279.62 421.781 279.228 421.495 278.449C421.343 278.033 421.384 277.594 421.576 277.231L422.318 272.739L420.666 273.354C420.362 273.465 420.018 273.424 419.755 273.237C419.311 272.921 419.2 272.306 419.515 271.855H419.504Z" fill="#EE9367"/>
<path d="M427.654 301.112C430.229 301.112 432.319 303.208 432.319 305.791V323.23H422.989V305.791C422.989 303.208 425.079 301.112 427.654 301.112Z" fill="#B7ACF8"/>
<path d="M399.466 184.805C397.539 181.045 394.317 178.463 393.896 178.158C391.135 176.173 387.597 174.861 385.874 174.75C375.435 174.088 372.586 179.423 372.417 185.308L381.6 185.572L385.098 196.013L405.801 196.558" fill="black"/>
<path d="M394.953 184.495C397.316 184.495 399.233 182.573 399.233 180.202C399.233 177.831 397.316 175.91 394.953 175.91C392.589 175.91 390.673 177.831 390.673 180.202C390.673 182.573 392.589 184.495 394.953 184.495Z" fill="black"/>
<path d="M400.412 190.339C402.775 190.339 404.692 188.417 404.692 186.046C404.692 183.676 402.775 181.754 400.412 181.754C398.048 181.754 396.132 183.676 396.132 186.046C396.132 188.417 398.048 190.339 400.412 190.339Z" fill="black"/>
<path d="M404.055 197.56C406.419 197.56 408.335 195.638 408.335 193.267C408.335 190.896 406.419 188.975 404.055 188.975C401.691 188.975 399.775 190.896 399.775 193.267C399.775 195.638 401.691 197.56 404.055 197.56Z" fill="black"/>
<path d="M398.263 198.824C400.627 198.824 402.543 196.902 402.543 194.532C402.543 192.161 400.627 190.239 398.263 190.239C395.9 190.239 393.984 192.161 393.984 194.532C393.984 196.902 395.9 198.824 398.263 198.824Z" fill="black"/>
<path d="M392.834 199.755C395.197 199.755 397.113 197.834 397.113 195.463C397.113 193.092 395.197 191.17 392.834 191.17C390.47 191.17 388.554 193.092 388.554 195.463C388.554 197.834 390.47 199.755 392.834 199.755Z" fill="black"/>
<path d="M388.554 199.632C390.918 199.632 392.834 197.711 392.834 195.34C392.834 192.969 390.918 191.047 388.554 191.047C386.19 191.047 384.274 192.969 384.274 195.34C384.274 197.711 386.19 199.632 388.554 199.632Z" fill="black"/>
<path d="M387.801 181.777C390.165 181.777 392.081 179.856 392.081 177.485C392.081 175.114 390.165 173.192 387.801 173.192C385.438 173.192 383.521 175.114 383.521 177.485C383.521 179.856 385.438 181.777 387.801 181.777Z" fill="black"/>
</g>
<path d="M445.265 167.452C443.348 167.452 441.593 166.721 440.585 165.437C440.016 164.804 440.098 164.397 440.829 163.796C441.186 163.504 441.414 163.39 441.609 163.39C441.901 163.39 442.015 163.585 442.21 163.959C442.941 165.421 444.095 166.185 445.298 166.169C446.321 166.152 447.231 165.486 447.378 164.592C447.573 163.471 446.841 162.724 445.005 162.204C442.243 161.375 441.17 160.237 441.528 158.222C441.836 156.386 443.754 155.102 446.11 155.102C447.898 155.102 449.539 155.817 450.433 156.922C451.001 157.491 450.953 157.914 450.335 158.466C449.994 158.791 449.75 158.921 449.571 158.921C449.328 158.921 449.181 158.759 448.938 158.369C448.125 156.971 447.231 156.354 446.078 156.337C445.086 156.337 444.209 156.987 444.046 157.865C443.868 158.872 444.566 159.425 446.565 159.994C449.214 160.757 450.286 162.106 449.913 164.251C449.571 166.152 447.67 167.452 445.265 167.452ZM453.991 167.371C451.846 167.404 450.416 165.372 450.904 162.675C451.375 160.059 453.39 158.157 456.023 158.157C457.534 158.157 458.265 158.515 458.818 158.515C459.191 158.515 459.403 158.482 459.679 158.401C459.874 158.336 460.118 158.255 460.329 158.255C460.686 158.239 460.865 158.482 460.816 158.791C460.784 159.002 460.686 159.149 460.459 159.392C460.118 159.685 460.004 160.059 459.906 160.579L459.143 164.852C459.061 165.356 459.143 165.519 459.728 165.47C460.069 165.535 460.215 165.697 460.199 165.974C460.183 166.315 459.939 166.526 459.516 166.656L458.753 166.916L457.339 167.29C456.819 167.436 456.624 167.079 456.689 166.331C456.705 166.039 456.543 165.99 456.315 166.217C455.665 166.9 454.869 167.371 453.991 167.371ZM453.325 162.122C453 164.024 453.715 165.681 455.064 165.681C455.99 165.681 456.835 164.787 457.014 163.764L457.485 161.196C457.68 160.091 457.485 159.425 455.958 159.441C454.609 159.457 453.618 160.562 453.325 162.122ZM461.303 167.192L460.897 167.225C460.507 167.225 460.295 166.981 460.36 166.624C460.409 166.364 460.572 166.185 460.929 166.039C461.384 165.876 461.498 165.649 461.595 165.096L462.424 160.335C462.505 159.864 462.457 159.717 462.002 159.506C461.709 159.327 461.612 159.132 461.644 158.84C461.677 158.515 461.92 158.32 462.294 158.336L463.009 158.352H464.212C464.537 158.352 464.683 158.515 464.683 158.807V159.051C464.683 159.23 464.829 159.295 464.975 159.116C465.43 158.564 466.113 158.141 466.844 158.174C467.64 158.19 468.03 158.694 467.884 159.49C467.722 160.384 467.25 161.05 466.763 161.001C466.584 161.001 466.503 160.92 466.373 160.79C466.21 160.546 466.048 160.416 465.788 160.416C465.203 160.4 464.618 160.855 464.472 161.635L463.838 165.275C463.757 165.73 463.838 165.876 464.374 166.055C464.732 166.217 464.845 166.396 464.829 166.672C464.797 166.997 464.504 167.192 464.082 167.192H461.303ZM470.575 167.371C468.43 167.404 467 165.372 467.487 162.675C467.958 160.059 469.973 158.157 472.606 158.157C474.117 158.157 474.848 158.515 475.401 158.515C475.775 158.515 475.986 158.482 476.262 158.401C476.457 158.336 476.701 158.255 476.912 158.255C477.27 158.239 477.448 158.482 477.4 158.791C477.367 159.002 477.27 159.149 477.042 159.392C476.701 159.685 476.587 160.059 476.49 160.579L475.726 164.852C475.645 165.356 475.726 165.519 476.311 165.47C476.652 165.535 476.798 165.697 476.782 165.974C476.766 166.315 476.522 166.526 476.1 166.656L475.336 166.916L473.922 167.29C473.402 167.436 473.207 167.079 473.272 166.331C473.288 166.039 473.126 165.99 472.898 166.217C472.248 166.9 471.452 167.371 470.575 167.371ZM469.908 162.122C469.583 164.024 470.298 165.681 471.647 165.681C472.573 165.681 473.418 164.787 473.597 163.764L474.068 161.196C474.263 160.091 474.068 159.425 472.541 159.441C471.192 159.457 470.201 160.562 469.908 162.122Z" fill="#54483D"/>
<path d="M248.472 158.346C247.824 158.346 247.365 157.995 247.365 157.347C247.365 156.915 247.581 156.591 248.175 156.348C249.201 155.97 249.39 155.484 249.363 154.377V142.686C249.39 141.579 249.174 141.093 248.148 140.688C247.554 140.445 247.365 140.121 247.365 139.689C247.365 139.041 247.824 138.69 248.472 138.717H260.19C261.108 138.717 261.648 139.041 261.891 139.77C262.107 140.445 262.728 142.335 262.728 143.253C262.728 143.766 262.377 144.063 261.972 144.063C261.27 144.063 260.46 143.388 259.785 142.875C258.327 141.822 257.193 141.228 255.411 141.255C253.872 141.282 253.251 142.038 253.251 144.279V145.71C253.251 146.358 253.413 146.52 254.196 146.52L258.84 146.547C259.515 146.547 260.001 146.763 260.001 147.519C260.001 148.14 259.515 149.085 258.975 149.679C258.678 150.03 258.408 150.219 258.03 150.219C256.95 150.219 255.249 149.193 254.142 149.193C253.683 149.193 253.278 149.382 253.278 150.138V154.053C253.278 155.403 254.169 155.754 256.086 155.754C257.598 155.754 258.894 155.133 260.163 154.215C260.946 153.648 262.053 152.649 262.809 152.649C263.295 152.649 263.619 152.973 263.619 153.513C263.619 154.242 263.16 155.808 262.647 156.861C262.242 157.806 261.891 158.346 261 158.346H248.472ZM270.618 158.697C266.811 158.697 264.138 155.835 264.138 151.758C264.138 146.817 267.621 143.496 271.887 143.496C272.67 143.496 273.588 143.631 274.074 143.739C274.236 143.793 274.425 143.847 274.56 143.847C274.857 143.847 274.911 143.577 274.911 143.145V142.767C274.938 141.633 274.695 141.147 273.723 140.769C273.048 140.499 272.832 140.175 272.832 139.77C272.859 139.122 273.318 138.798 274.074 138.825H277.476C278.205 138.825 278.529 139.176 278.529 140.175V154.593C278.502 155.7 278.718 156.132 279.42 156.483C280.014 156.753 280.203 157.05 280.203 157.455C280.203 158.049 279.771 158.373 279.15 158.346H275.991C275.424 158.346 275.181 157.941 275.019 157.455C274.857 156.969 274.506 156.888 274.155 157.32C273.426 158.13 272.103 158.697 270.618 158.697ZM267.864 150.813C267.864 153.216 269.295 155.7 271.806 155.7C273.453 155.7 274.911 154.566 274.938 152.946L274.992 149.031C275.019 146.898 273.993 145.926 271.833 146.007C269.619 146.088 267.864 148.086 267.864 150.813ZM286.596 158.697C282.789 158.697 280.116 155.835 280.116 151.758C280.116 146.817 283.599 143.496 287.865 143.496C288.648 143.496 289.566 143.631 290.052 143.739C290.214 143.793 290.403 143.847 290.538 143.847C290.835 143.847 290.889 143.577 290.889 143.145V142.767C290.916 141.633 290.673 141.147 289.701 140.769C289.026 140.499 288.81 140.175 288.81 139.77C288.837 139.122 289.296 138.798 290.052 138.825H293.454C294.183 138.825 294.507 139.176 294.507 140.175V154.593C294.48 155.7 294.696 156.132 295.398 156.483C295.992 156.753 296.181 157.05 296.181 157.455C296.181 158.049 295.749 158.373 295.128 158.346H291.969C291.402 158.346 291.159 157.941 290.997 157.455C290.835 156.969 290.484 156.888 290.133 157.32C289.404 158.13 288.081 158.697 286.596 158.697ZM283.842 150.813C283.842 153.216 285.273 155.7 287.784 155.7C289.431 155.7 290.889 154.566 290.916 152.946L290.97 149.031C290.997 146.898 289.971 145.926 287.811 146.007C285.597 146.088 283.842 148.086 283.842 150.813ZM298.202 163.314C297.77 163.314 297.527 162.99 297.527 162.693C297.527 162.369 297.77 162.126 297.986 161.964L301.577 159.048C302.144 158.589 302.09 158.13 301.766 157.455C300.2 154.08 298.688 150.651 297.23 147.222C296.906 146.466 296.69 146.169 296.204 145.899C295.664 145.602 295.529 145.224 295.529 144.927C295.529 144.387 295.934 143.793 296.744 143.793H301.793C302.495 143.793 303.008 144.144 303.008 144.846C303.008 145.332 302.738 145.575 301.847 145.98C300.902 146.439 301.226 147.033 301.496 147.843C302.171 149.814 302.954 151.758 304.034 154.053C304.304 154.62 304.412 154.593 304.655 154.026C305.6 151.812 306.329 149.733 306.842 148.005C307.166 146.952 307.22 146.574 306.275 146.007C305.87 145.764 305.519 145.413 305.519 144.873C305.519 144.144 305.978 143.793 306.653 143.793H310.649C311.297 143.793 311.756 144.144 311.756 144.792C311.756 145.17 311.648 145.494 311.081 145.872C310.595 146.223 310.163 146.736 309.758 147.951C308.705 151.083 307.517 154.053 306.248 156.915C305.384 158.886 304.439 160.722 303.224 162.531C302.819 163.098 302.387 163.314 301.739 163.314H298.202ZM313.797 146.304C313.149 146.682 312.69 146.574 312.312 146.061C312.015 145.629 312.123 145.251 312.528 144.954C313.365 144.333 313.878 143.82 313.878 143.226C313.878 142.983 313.743 142.794 313.392 142.686C312.528 142.416 312.069 141.768 312.069 140.823C312.069 139.5 313.095 138.528 314.337 138.528C315.714 138.528 316.713 139.527 316.713 141.444C316.713 143.793 315.039 145.602 313.797 146.304ZM321.455 158.724C319.268 158.697 317.135 157.914 316.163 157.077C315.218 156.24 315.245 155.376 316.325 153.999C316.541 153.702 316.784 153.54 317.081 153.54C317.513 153.54 317.864 153.972 318.539 154.674C319.808 155.997 320.942 156.537 322.022 156.537C323.399 156.537 324.425 155.727 324.425 154.836C324.425 153.837 323.534 153.162 320.645 152.379C317.297 151.461 315.866 150.3 315.866 148.032C315.866 145.44 318.404 143.388 321.968 143.388C323.885 143.388 325.991 144.117 326.936 145.008C327.746 145.764 327.665 146.547 326.747 147.843C326.531 148.113 326.315 148.248 326.045 148.248C325.721 148.248 325.451 147.897 324.587 147.06C323.48 146.034 322.481 145.575 321.455 145.575C320.321 145.575 319.376 146.25 319.376 147.195C319.376 148.167 320.267 148.653 323.129 149.409C326.585 150.3 327.962 151.623 327.962 154.08C327.962 156.888 325.046 158.778 321.455 158.724ZM241.392 190.346C240.744 190.346 240.285 189.995 240.285 189.347C240.285 188.915 240.501 188.591 241.095 188.348C242.121 187.97 242.31 187.484 242.283 186.377V174.686C242.31 173.579 242.094 173.093 241.068 172.688C240.474 172.445 240.285 172.121 240.285 171.689C240.285 171.041 240.744 170.69 241.392 170.717H249.438C253.353 170.717 256.107 173.228 256.107 176.684C256.107 179.978 253.434 182.516 249.384 183.542C248.358 183.812 247.467 184.055 246.684 184.298C246.279 184.406 246.117 184.568 246.117 185.027V186.377C246.09 187.484 246.333 187.97 247.575 188.375C248.277 188.618 248.52 188.942 248.52 189.401C248.52 190.022 247.953 190.373 247.197 190.373L246.09 190.346H241.392ZM246.171 180.923C246.171 181.274 246.306 181.409 246.63 181.409C247.197 181.409 248.115 181.166 248.952 180.815C250.464 180.167 251.922 179.06 251.922 177.17C251.922 174.929 250.383 173.363 248.223 173.363H246.9C246.252 173.39 246.171 173.579 246.171 174.227V180.923ZM261.869 190.616C258.764 190.616 256.577 188.564 256.577 185.621C256.577 182.705 259.358 180.572 262.436 180.572C263.624 180.572 264.677 180.896 265.136 180.896C265.406 180.896 265.514 180.761 265.514 180.491C265.514 179.33 264.677 178.034 262.841 178.034C261.491 178.034 260.168 178.79 258.872 179.681C258.143 180.113 257.711 179.924 257.333 179.141C256.685 177.71 256.793 176.9 257.657 176.495C258.818 175.901 261.005 175.496 262.679 175.496C266.756 175.496 268.781 177.143 269.429 180.95L270.131 185.135C270.455 187.079 270.887 187.754 271.67 188.483C271.994 188.753 272.129 189.077 272.129 189.455C272.129 190.076 271.454 190.481 270.347 190.481C269.051 190.481 268.187 190.157 267.539 189.374C267.08 188.915 266.891 188.888 266.351 189.266C265.001 190.211 263.408 190.616 261.869 190.616ZM260.357 185.405C260.357 186.782 261.464 188.159 263.3 188.159C265.406 188.159 266.81 187.214 266.54 185.891L266.243 184.406C266.027 183.353 265.649 182.84 263.732 182.84C261.329 182.84 260.357 184.217 260.357 185.405ZM273.717 190.346C273.096 190.346 272.664 190.022 272.664 189.428C272.664 189.023 272.88 188.726 273.474 188.456C274.176 188.132 274.365 187.7 274.338 186.593V179.546C274.365 178.466 274.149 178.007 273.339 177.656C272.772 177.386 272.61 177.089 272.61 176.684C272.61 176.09 273.015 175.766 273.636 175.793H276.957C277.47 175.793 277.767 176.063 277.929 176.657L278.037 177.008C278.118 177.278 278.361 177.278 278.577 177.035C279.576 175.955 280.44 175.658 281.25 175.658C282.222 175.658 282.951 176.171 282.951 177.791C282.951 179.384 282.33 180.761 281.601 180.761C281.304 180.761 281.007 180.545 280.71 180.059C280.278 179.384 280.008 179.114 279.333 179.114C278.469 179.114 277.929 179.789 277.929 180.842V186.485C277.902 187.619 278.118 188.078 279.009 188.402C279.738 188.672 279.981 188.996 279.981 189.401C279.981 190.022 279.468 190.346 278.712 190.346H273.717ZM290.911 190.67C286.861 190.67 283.243 187.619 283.135 183.272C282.973 178.547 286.996 175.469 290.641 175.469C294.313 175.469 297.31 178.142 297.31 181.139C297.31 182.219 296.716 182.975 295.744 183.245C294.529 183.569 293.422 183.704 292.315 183.947C291.073 184.217 289.804 184.811 289.102 185.513C288.832 185.756 288.643 185.891 288.643 186.08C288.643 186.269 288.778 186.539 289.048 186.755C289.723 187.43 290.776 187.727 291.775 187.727C293.368 187.727 294.556 187.133 295.96 185.999C296.527 185.513 296.959 185.513 297.364 185.945C297.877 186.458 297.85 186.971 297.364 187.619C296.041 189.482 293.395 190.67 290.911 190.67ZM286.699 181.841C286.699 182.921 286.942 183.785 287.374 183.785C287.509 183.785 287.698 183.704 287.968 183.515C289.021 182.732 290.776 181.841 292.126 181.436C292.936 181.193 293.395 180.842 293.395 180.329C293.395 179.249 291.883 177.98 290.128 177.98C288.292 177.98 286.699 179.627 286.699 181.841ZM298.839 190.346C298.218 190.346 297.786 190.022 297.786 189.428C297.786 189.023 298.002 188.726 298.596 188.456C299.298 188.132 299.487 187.7 299.46 186.593V179.546C299.487 178.466 299.271 178.007 298.461 177.656C297.894 177.386 297.732 177.089 297.732 176.684C297.732 176.09 298.137 175.766 298.758 175.793H301.917C302.538 175.793 302.835 176.063 303.078 176.927C303.159 177.224 303.456 177.278 303.699 177.008C304.752 175.955 306.075 175.388 307.452 175.388C310.935 175.388 312.663 177.17 312.663 180.788V186.593C312.636 187.7 312.825 188.132 313.527 188.456C314.121 188.726 314.337 189.023 314.337 189.428C314.337 190.022 313.905 190.346 313.284 190.346H308.262C307.533 190.346 307.02 189.995 307.02 189.374C307.02 188.969 307.263 188.645 307.965 188.375C308.829 188.024 309.045 187.565 309.018 186.404L309.045 181.49C309.045 179.303 308.127 178.331 305.994 178.331C304.212 178.331 303.078 179.6 303.078 181.625V186.404C303.051 187.565 303.267 188.024 304.131 188.375C304.833 188.645 305.076 188.969 305.076 189.374C305.076 189.995 304.563 190.346 303.834 190.346H298.839ZM318.082 190.346C316.246 190.265 315.463 189.347 315.463 187.295C315.463 186.215 315.652 184.595 315.868 182.813C316.084 181.112 316.3 179.681 316.3 178.817C316.3 178.088 316.111 177.98 314.815 178.007C313.897 178.034 313.708 177.683 313.708 177.035C313.708 176.522 313.951 176.333 314.356 176.09C315.139 175.631 315.598 175.334 316.084 174.821C316.516 174.362 316.948 173.741 317.461 172.796C317.704 172.364 317.974 172.229 318.433 172.229C319.027 172.229 319.297 172.445 319.27 173.066L319.189 175.145C319.162 175.739 319.297 175.793 320.242 175.793H321.322C322.051 175.793 322.267 176.117 322.267 177.062C322.267 177.98 321.916 178.223 321.106 178.223H320.08C319.324 178.223 319.243 178.277 319.243 179.222C319.216 181.949 319.162 184.514 319.162 186.701C319.162 187.619 319.459 187.862 320.917 188.213C321.997 188.483 322.456 188.564 322.456 189.374C322.456 190.076 322.078 190.346 321.295 190.346C320.026 190.346 318.784 190.373 318.082 190.346ZM328.535 190.724C326.348 190.697 324.215 189.914 323.243 189.077C322.298 188.24 322.325 187.376 323.405 185.999C323.621 185.702 323.864 185.54 324.161 185.54C324.593 185.54 324.944 185.972 325.619 186.674C326.888 187.997 328.022 188.537 329.102 188.537C330.479 188.537 331.505 187.727 331.505 186.836C331.505 185.837 330.614 185.162 327.725 184.379C324.377 183.461 322.946 182.3 322.946 180.032C322.946 177.44 325.484 175.388 329.048 175.388C330.965 175.388 333.071 176.117 334.016 177.008C334.826 177.764 334.745 178.547 333.827 179.843C333.611 180.113 333.395 180.248 333.125 180.248C332.801 180.248 332.531 179.897 331.667 179.06C330.56 178.034 329.561 177.575 328.535 177.575C327.401 177.575 326.456 178.25 326.456 179.195C326.456 180.167 327.347 180.653 330.209 181.409C333.665 182.3 335.042 183.623 335.042 186.08C335.042 188.888 332.126 190.778 328.535 190.724Z" fill="#54483D"/>
<path d="M468.273 178.692C468.273 178.071 468.777 177.567 469.398 177.567C470.019 177.567 470.523 178.071 470.523 178.692H468.273ZM473.359 195.014L474.48 194.912L473.359 195.014ZM464.912 196.756L465.974 196.384L464.912 196.756ZM471.904 199.571L472.964 199.194L471.904 199.571ZM449.704 211.271C449.265 210.832 449.265 210.12 449.704 209.68L456.864 202.521C457.303 202.082 458.015 202.082 458.455 202.521C458.894 202.96 458.894 203.673 458.455 204.112L452.091 210.476L458.455 216.84C458.894 217.279 458.894 217.992 458.455 218.431C458.015 218.87 457.303 218.87 456.864 218.431L449.704 211.271ZM470.523 178.692C470.523 181.112 471.511 183.388 472.539 185.902L470.457 186.754C469.483 184.373 468.273 181.648 468.273 178.692H470.523ZM472.539 185.902C473.747 188.856 474.204 191.882 474.48 194.912L472.239 195.116C471.97 192.16 471.538 189.397 470.457 186.754L472.539 185.902ZM474.48 194.912C474.795 198.38 472.803 200.713 470.254 201.204C467.737 201.689 464.967 200.317 463.85 197.127L465.974 196.384C466.74 198.571 468.459 199.259 469.828 198.995C471.166 198.737 472.457 197.511 472.239 195.116L474.48 194.912ZM463.85 197.127C463.721 196.758 463.607 196.372 463.552 196C463.499 195.636 463.487 195.183 463.664 194.739C464.088 193.676 465.175 193.459 466.058 193.459V195.709C465.737 195.709 465.612 195.753 465.594 195.76C465.593 195.761 465.624 195.747 465.665 195.707C465.707 195.665 465.737 195.616 465.755 195.572C465.784 195.499 465.754 195.503 465.779 195.675C465.802 195.839 465.863 196.068 465.974 196.384L463.85 197.127ZM466.058 193.459C469.735 193.459 471.934 196.298 472.964 199.194L470.844 199.948C469.947 197.426 468.327 195.709 466.058 195.709V193.459ZM472.964 199.194C474.069 202.304 473.606 204.825 471.965 206.728C470.407 208.535 467.921 209.623 465.314 210.306C460.076 211.678 453.573 211.601 450.5 211.601V209.351C453.655 209.351 459.842 209.413 464.743 208.129C467.206 207.484 469.152 206.545 470.261 205.259C471.287 204.069 471.726 202.431 470.844 199.948L472.964 199.194Z" fill="#F9F4F2"/>
<path d="M116.569 160.192C116.146 160.192 115.886 159.965 115.935 159.575C115.951 159.315 116.114 159.104 116.504 158.957C117.04 158.779 117.235 158.6 117.365 158.015L118.681 150.572C118.779 149.987 118.73 149.76 118.259 149.565C117.901 149.37 117.804 149.191 117.82 148.882C117.853 148.541 118.129 148.33 118.568 148.33H125.734C126.238 148.33 126.449 148.574 126.611 149.191C126.774 150.052 127.034 151.174 126.953 151.564C126.904 151.824 126.725 152.019 126.449 152.002C126.075 151.986 125.636 151.466 125.019 150.637C124.401 149.744 124.255 149.597 122.695 149.597C121.623 149.614 121.314 149.809 121.184 150.459L120.843 152.327C120.745 152.75 120.826 152.929 121.249 152.929H124.84C125.214 152.929 125.36 153.124 125.295 153.432C125.246 153.741 124.986 154.277 124.694 154.619C124.466 154.879 124.304 155.009 123.979 154.976C123.443 154.944 122.679 154.196 121.103 154.212C120.648 154.212 120.42 154.505 120.323 155.171L119.884 157.657C119.754 158.454 119.868 158.697 121.411 158.697C122.971 158.681 123.361 158.519 124.19 157.674C125.279 156.715 125.474 156.455 125.896 156.455C126.205 156.471 126.384 156.699 126.303 157.089C126.221 157.43 125.766 158.324 125.49 158.925C125.1 159.949 124.808 160.192 124.206 160.192H116.569ZM127.112 160.192L126.705 160.225C126.299 160.225 126.088 159.981 126.153 159.624C126.202 159.364 126.364 159.201 126.722 159.055C127.193 158.876 127.307 158.665 127.388 158.096L128.834 150.101C128.915 149.614 128.85 149.451 128.379 149.256C128.07 149.061 127.957 148.866 128.005 148.574C128.038 148.232 128.298 148.037 128.672 148.054L129.419 148.07H130.703C131.207 148.07 131.418 148.346 131.337 148.834L129.647 158.194C129.565 158.665 129.582 158.811 130.053 158.99C130.378 159.169 130.492 159.364 130.459 159.656C130.427 159.981 130.183 160.192 129.809 160.192H127.112ZM133.064 150.361C132.69 150.361 132.511 150.117 132.576 149.695C132.722 148.915 133.47 148.249 134.282 148.249C135.241 148.249 135.859 148.915 135.712 149.809C135.631 150.215 135.387 150.361 135.014 150.361H133.064ZM130.837 159.624C130.886 159.347 131.049 159.185 131.406 159.039C131.861 158.86 131.975 158.632 132.072 158.064L132.885 153.335C132.966 152.864 132.901 152.717 132.446 152.506C132.137 152.327 132.024 152.132 132.072 151.856C132.105 151.515 132.349 151.32 132.722 151.336L133.454 151.352H134.721C135.306 151.352 135.469 151.645 135.371 152.197L134.315 158.242C134.234 158.714 134.25 158.86 134.705 159.039C135.014 159.201 135.111 159.38 135.095 159.672C135.062 159.997 134.819 160.192 134.461 160.192H131.78L131.374 160.225C130.984 160.225 130.772 159.981 130.837 159.624ZM135.879 159.217C135.408 158.762 135.457 158.324 135.863 157.706C136.025 157.43 136.22 157.202 136.48 157.219C136.675 157.235 136.822 157.414 137.147 157.804C137.699 158.649 138.577 159.201 139.487 159.201C140.202 159.201 140.77 158.811 140.868 158.259C140.998 157.544 140.445 156.959 138.95 156.455C136.87 155.724 136.269 154.879 136.497 153.497C136.74 152.051 138.203 151.076 140.12 151.076C141.274 151.076 142.72 151.58 143.387 152.344C143.89 152.782 143.874 153.091 143.452 153.79C143.273 154.05 143.11 154.147 142.948 154.131C142.785 154.115 142.558 153.92 142.282 153.611C141.745 152.782 141.047 152.262 140.202 152.262C139.487 152.262 138.934 152.685 138.82 153.254C138.723 153.887 139.194 154.31 140.754 154.83C142.85 155.561 143.517 156.455 143.24 158.031C142.964 159.494 141.502 160.436 139.535 160.436C138.008 160.436 136.594 159.949 135.879 159.217ZM148.282 160.452C145.585 160.404 143.635 158.242 144.122 155.285C144.528 152.912 146.592 151.076 149.03 151.092C151.548 151.092 153.596 153.237 153.076 155.496C152.93 156.13 152.426 156.552 151.695 156.552C151.321 156.552 150.996 156.504 150.638 156.455C149.29 156.244 148.006 156.309 146.917 156.699C146.771 156.747 146.69 156.812 146.673 156.91C146.657 157.024 146.738 157.186 146.803 157.316C147.112 158.259 148.103 158.795 149.095 158.779C149.972 158.762 150.866 158.389 151.565 157.755C151.89 157.544 152.052 157.576 152.312 157.95C152.54 158.259 152.458 158.47 152.166 158.827C151.305 159.835 149.826 160.469 148.282 160.452ZM146.348 155.106C146.332 155.366 146.381 155.594 146.56 155.594C146.673 155.594 146.787 155.512 146.901 155.447C147.681 155.09 148.786 154.895 150.248 155.09C150.687 155.122 150.85 154.976 150.85 154.537C150.85 153.644 149.972 152.49 148.802 152.457C147.307 152.425 146.332 154.115 146.348 155.106Z" fill="#54483D"/>
<path d="M131.615 171.692C131.615 171.071 131.111 170.567 130.49 170.567C129.868 170.567 129.365 171.071 129.365 171.692H131.615ZM126.528 188.014L125.408 187.912L126.528 188.014ZM134.976 189.756L133.914 189.384L134.976 189.756ZM127.984 192.571L126.924 192.194L127.984 192.571ZM150.183 204.271C150.623 203.832 150.623 203.12 150.183 202.68L143.024 195.521C142.585 195.082 141.872 195.082 141.433 195.521C140.994 195.96 140.994 196.673 141.433 197.112L147.797 203.476L141.433 209.84C140.994 210.279 140.994 210.992 141.433 211.431C141.872 211.87 142.585 211.87 143.024 211.431L150.183 204.271ZM129.365 171.692C129.365 174.112 128.377 176.388 127.348 178.902L129.431 179.754C130.405 177.373 131.615 174.648 131.615 171.692H129.365ZM127.348 178.902C126.14 181.856 125.684 184.882 125.408 187.912L127.649 188.116C127.918 185.16 128.35 182.397 129.431 179.754L127.348 178.902ZM125.408 187.912C125.093 191.38 127.085 193.713 129.634 194.204C132.151 194.689 134.921 193.317 136.037 190.127L133.914 189.384C133.148 191.571 131.428 192.259 130.059 191.995C128.722 191.737 127.431 190.511 127.649 188.116L125.408 187.912ZM136.037 190.127C136.167 189.758 136.281 189.372 136.335 189C136.389 188.636 136.4 188.183 136.223 187.739C135.8 186.676 134.713 186.459 133.83 186.459V188.709C134.151 188.709 134.276 188.753 134.294 188.76C134.295 188.761 134.263 188.747 134.223 188.707C134.181 188.665 134.151 188.616 134.133 188.572C134.104 188.499 134.134 188.503 134.109 188.675C134.085 188.839 134.024 189.068 133.914 189.384L136.037 190.127ZM133.83 186.459C130.153 186.459 127.954 189.298 126.924 192.194L129.044 192.948C129.941 190.426 131.561 188.709 133.83 188.709V186.459ZM126.924 192.194C125.818 195.304 126.282 197.825 127.923 199.728C129.481 201.535 131.967 202.623 134.574 203.306C139.812 204.678 146.315 204.601 149.388 204.601V202.351C146.233 202.351 140.045 202.413 135.144 201.129C132.682 200.484 130.736 199.545 129.627 198.259C128.601 197.069 128.161 195.431 129.044 192.948L126.924 192.194Z" fill="#F9F4F2"/>
</g>
<defs>
<clipPath id="clip0_1554_26596">
<rect width="414" height="266" fill="white" transform="translate(85 127.346)"/>
</clipPath>
<clipPath id="clip1_1554_26596">
<rect width="126" height="216" fill="white" transform="translate(328.984 173.192)"/>
</clipPath>
</defs>
</svg>
