<svg width="584" height="521" viewBox="0 0 584 521" fill="none" xmlns="http://www.w3.org/2000/svg">
<rect x="6.5" y="6.32666" width="571" height="508" rx="22" fill="#FFCFB8"/>
<rect x="6.5" y="6.32666" width="571" height="508" rx="22" stroke="#FFE4D7" stroke-width="12"/>
<g clip-path="url(#clip0_1554_26596)">
<path d="M255.428 357.174L257.079 364.458C257.79 367.61 256.846 370.907 254.573 373.189C250.919 376.858 250.919 382.808 254.573 386.477L257.647 389.564L272.67 374.48L273.662 368.529L276.132 371.009L282.657 364.458L275.534 357.306L272.383 354.141L265.415 347.146L255.434 357.168L255.428 357.174Z" fill="#485925"/>
<path d="M199.087 187.014H180.345C180.345 190.503 182.235 193.541 185.039 195.168V201.191H193.765V195.505C196.916 193.985 199.093 190.755 199.093 187.014H199.087Z" fill="#EFBAA1"/>
<path d="M189.716 197.732C171.787 197.732 157.248 212.33 157.248 230.333H129.978V241.382H153.289C167.971 241.382 168.976 230.333 168.976 230.333L171.278 223.019L207.627 227.847L214.038 271.148L225.401 264.801L222.171 230.333C222.171 212.33 207.633 197.732 189.704 197.732H189.716Z" fill="#485925"/>
<path d="M198.662 172.71L213.834 195.294L200.361 199.384L194.865 176.691L198.662 172.71Z" fill="black"/>
<path d="M194.865 182.21C197.9 182.21 200.361 179.739 200.361 176.691C200.361 173.644 197.9 171.173 194.865 171.173C191.83 171.173 189.369 173.644 189.369 176.691C189.369 179.739 191.83 182.21 194.865 182.21Z" fill="black"/>
<path d="M189.716 177.598C184.537 177.598 180.345 181.814 180.345 187.008H199.087C199.087 181.808 194.889 177.598 189.716 177.598Z" fill="black"/>
<path d="M277.017 332.434C276.258 331.731 275.474 330.999 273.668 330.08C271.868 329.155 270.816 328.951 269.805 328.747C268.77 328.543 267.7 328.326 265.864 327.39C264.028 326.447 263.226 325.708 262.455 324.988C261.695 324.285 260.912 323.553 259.106 322.634C257.306 321.709 256.253 321.505 255.243 321.301C254.208 321.097 253.144 320.88 251.302 319.944C249.466 319.001 248.664 318.262 247.893 317.542C247.133 316.839 246.35 316.107 244.544 315.188C242.744 314.263 241.691 314.059 240.68 313.855C239.646 313.651 238.581 313.434 236.739 312.498C234.903 311.555 234.102 310.816 233.331 310.096C232.571 309.393 231.788 308.66 229.988 307.742C228.187 306.823 227.135 306.613 226.124 306.409C225.496 306.283 224.844 306.15 224.025 305.856C223.415 303.947 223.373 302.866 223.331 301.827C223.29 300.788 223.248 299.719 222.626 297.786C221.998 295.852 221.406 294.963 220.832 294.099C220.246 293.222 219.642 292.309 219.002 290.34C218.362 288.37 218.32 287.277 218.278 286.22C218.236 285.181 218.194 284.113 217.572 282.179C216.95 280.245 216.352 279.357 215.778 278.492C215.192 277.615 214.588 276.703 213.948 274.733C213.308 272.763 213.266 271.67 213.225 270.614C213.183 269.575 213.141 268.506 212.519 266.572C211.897 264.639 211.299 263.75 210.725 262.885C210.139 262.009 209.535 261.096 208.895 259.126C208.255 257.157 208.213 256.064 208.171 255.007C208.129 253.968 208.087 252.899 207.466 250.966C206.838 249.032 206.246 248.143 205.671 247.279C205.283 246.69 204.882 246.09 204.469 245.177C203.202 238.145 197.078 232.813 189.71 232.813C182.928 232.813 177.205 237.329 175.345 243.526H175.237C174.597 245.495 173.993 246.402 173.407 247.285C172.833 248.149 172.241 249.038 171.613 250.972C170.985 252.905 170.949 253.974 170.908 255.013C170.866 256.07 170.824 257.163 170.184 259.132C169.544 261.102 168.94 262.009 168.354 262.891C167.78 263.756 167.188 264.645 166.56 266.578C165.932 268.512 165.896 269.581 165.854 270.62C165.812 271.676 165.77 272.769 165.131 274.739C164.491 276.709 163.887 277.615 163.301 278.498C162.726 279.363 162.134 280.251 161.506 282.185C160.878 284.119 160.843 285.187 160.801 286.226C160.759 287.283 160.717 288.376 160.077 290.346C159.437 292.315 158.833 293.222 158.247 294.105C157.673 294.969 157.081 295.858 156.453 297.792C155.831 299.725 155.789 300.794 155.747 301.833C155.705 302.89 155.664 303.983 155.024 305.952C154.384 307.922 153.78 308.829 153.194 309.711C152.62 310.576 152.028 311.465 151.4 313.398C150.772 315.332 150.736 316.401 150.694 317.44C150.652 318.496 150.61 319.589 149.97 321.559C149.33 323.529 148.726 324.435 148.14 325.318C147.566 326.183 146.974 327.071 146.346 329.005C145.718 330.939 145.676 332.007 145.64 333.046C145.599 334.103 145.557 335.196 144.917 337.166C144.277 339.135 143.673 340.042 143.087 340.925C142.513 341.789 141.921 342.678 141.293 344.612C140.665 346.545 140.623 347.614 140.587 348.653C140.545 349.71 140.503 350.803 139.863 352.772C139.224 354.742 138.62 355.655 138.033 356.531C137.459 357.396 136.867 358.285 136.239 360.218C135.611 362.152 135.57 363.221 135.534 364.26C135.492 365.316 135.45 366.409 134.81 368.379H135.277H186.349V262.573C187.419 262.819 188.538 262.951 189.686 262.951C190.715 262.951 191.713 262.849 192.682 262.651L197.592 316.953C197.795 319.205 198.722 321.325 200.235 323L243.958 371.441L280.073 335.178L280.402 334.848C278.566 333.905 277.765 333.166 276.993 332.446L277.017 332.434ZM222.949 305.406C222.709 305.298 222.458 305.178 222.183 305.04L222.949 305.406Z" fill="#2E2811"/>
<path d="M159.36 368.361L155.395 374.684C153.684 377.416 150.688 379.08 147.471 379.08C142.304 379.08 138.111 383.289 138.111 388.477V392.843H159.354L164.246 389.336V392.843H173.467V368.361H159.348H159.36Z" fill="#485925"/>
<path d="M214.672 277.903L215.048 270.595L223.475 265.708L229.168 275.598C229.431 275.832 229.593 276.132 229.658 276.45L229.694 276.516L229.67 276.528C229.736 276.955 229.623 277.399 229.33 277.759C228.809 278.39 227.894 278.504 227.236 278.042C227.38 278.522 227.284 279.068 226.943 279.483C226.447 280.083 225.598 280.215 224.952 279.831C225.006 280.251 224.898 280.69 224.611 281.038C224.061 281.704 223.08 281.795 222.416 281.242C222.404 281.23 222.398 281.224 222.386 281.212C222.518 281.686 222.422 282.215 222.087 282.623C221.537 283.29 220.556 283.38 219.893 282.827C219.54 282.533 219.348 282.113 219.33 281.686L217.662 277.231L216.49 278.654C216.274 278.918 215.939 279.056 215.605 279.026C215.036 278.972 214.618 278.474 214.672 277.903Z" fill="#EFBAA1"/>
<path d="M123.866 227.048L129.984 231.035V240.811H118.603C118.274 240.919 117.927 240.913 117.622 240.811H117.545V240.781C117.15 240.625 116.815 240.307 116.654 239.875C116.367 239.106 116.725 238.253 117.461 237.917C116.977 237.797 116.552 237.449 116.367 236.938C116.097 236.206 116.408 235.401 117.066 235.035C116.677 234.873 116.355 234.56 116.199 234.134C115.9 233.323 116.313 232.423 117.12 232.122C117.132 232.122 117.144 232.116 117.162 232.11C116.689 231.984 116.277 231.642 116.097 231.144C115.798 230.333 116.211 229.432 117.018 229.132C117.449 228.97 117.909 229.018 118.286 229.216L122.963 229.991L122.323 228.261C122.203 227.943 122.251 227.583 122.449 227.306C122.777 226.838 123.417 226.724 123.884 227.054L123.866 227.048Z" fill="#EFBAA1"/>
<path d="M212.555 217.867H168.133V240.883H212.555V217.867Z" fill="#485925"/>
<path d="M320.228 330.461C325.676 330.461 330.102 334.905 330.102 340.375V364.701H310.349V340.375C310.349 334.905 314.774 330.461 320.222 330.461H320.228Z" fill="#5572D6"/>
<path d="M310.349 344.938C314.959 344.938 318.697 341.185 318.697 336.556C318.697 331.926 314.959 328.173 310.349 328.173C305.738 328.173 302 331.926 302 336.556C302 341.185 305.738 344.938 310.349 344.938Z" stroke="#5572D6" stroke-width="2" stroke-miterlimit="10"/>
<path d="M327.548 352.661H314.475V360.083H327.548V352.661Z" fill="black"/>
<path d="M278.871 379.848V391.323H259.01C259.01 388.964 260.912 387.054 263.262 387.054H265.463C267.191 387.054 268.746 386.003 269.398 384.4L271.252 379.848H278.877H278.871Z" fill="black"/>
<path d="M311.655 370.955L319.741 379.073L305.699 393.173C304.037 391.503 304.037 388.801 305.699 387.138L307.254 385.576C308.474 384.351 308.839 382.502 308.169 380.905L306.273 376.371L311.661 370.961L311.655 370.955Z" fill="black"/>
<path d="M282.83 320.406H267.239V379.848H282.83V320.406Z" fill="black"/>
<path d="M303.714 348.527L293.864 313.831L278.871 318.124L288.882 353.391L303.409 380.304L316.242 371.429L303.714 348.527Z" fill="black"/>
<path d="M289.695 277.963H270.307C270.307 282.323 271.766 286.01 275.695 287.253V291.48H284.104V287.253C288.039 286.016 289.689 282.323 289.689 277.963H289.695Z" fill="#EE9367"/>
<path d="M280.001 268.229C274.649 268.229 270.307 272.589 270.307 277.963H289.695C289.695 272.589 285.354 268.229 280.001 268.229Z" fill="black"/>
<path d="M231.381 277.945L232.876 281.861L229.593 286.388L224.324 282.539C224.133 282.479 223.977 282.359 223.869 282.209L223.834 282.185L223.846 282.173C223.714 281.963 223.666 281.704 223.738 281.452C223.864 281.002 224.318 280.726 224.767 280.816C224.581 280.594 224.503 280.293 224.587 279.993C224.707 279.561 225.119 279.297 225.55 279.345C225.424 279.14 225.377 278.882 225.448 278.63C225.58 278.156 226.076 277.873 226.549 278.011C226.555 278.011 226.567 278.011 226.573 278.017C226.393 277.801 226.321 277.501 226.405 277.207C226.537 276.732 227.033 276.45 227.506 276.588C227.757 276.66 227.954 276.835 228.062 277.057L229.963 278.996L230.251 277.975C230.304 277.789 230.442 277.639 230.627 277.573C230.938 277.465 231.273 277.633 231.375 277.945H231.381Z" fill="#EE9367"/>
<path d="M301.249 332.308L302.356 328.266L307.666 326.567L309.64 332.806C309.759 332.968 309.813 333.16 309.813 333.346L309.825 333.388H309.807C309.789 333.641 309.676 333.875 309.466 334.037C309.095 334.325 308.575 334.277 308.258 333.935C308.276 334.223 308.163 334.511 307.917 334.703C307.564 334.98 307.074 334.95 306.757 334.649C306.739 334.89 306.626 335.124 306.416 335.28C306.028 335.586 305.465 335.514 305.166 335.124C305.166 335.118 305.154 335.112 305.154 335.106C305.166 335.388 305.053 335.67 304.814 335.856C304.425 336.163 303.863 336.091 303.564 335.7C303.402 335.49 303.348 335.232 303.39 334.992L303.001 332.296L302.17 332.944C302.015 333.064 301.811 333.1 301.626 333.04C301.315 332.944 301.142 332.608 301.237 332.296L301.249 332.308Z" fill="#EE9367"/>
<path d="M285.868 326.951H274.134C262.042 326.951 253.173 315.524 256.127 303.748C258.209 295.461 265.624 289.655 274.134 289.655H285.868C294.18 289.655 301.476 295.203 303.737 303.232C307.086 315.133 298.181 326.945 285.868 326.945V326.951Z" fill="#B7ACF8"/>
<path d="M250.68 301.25L228.893 287.277L233.707 280.563L252.599 292.777C253.616 293.432 254.854 293.654 256.032 293.384L268.842 290.441L269.655 300.007L253.628 301.929C252.599 302.055 251.553 301.815 250.68 301.25Z" fill="#B7ACF8"/>
<path d="M301.372 302.748L293.94 305.121L301.373 328.589L308.804 326.216L301.372 302.748Z" fill="#B7ACF8"/>
<path d="M165.669 277.735H129.834C128.471 277.735 127.269 276.847 126.868 275.538L119.279 250.966C118.657 248.96 120.152 246.924 122.245 246.924H172.307C174.352 246.924 175.841 248.876 175.303 250.858L168.665 275.429C168.3 276.787 167.068 277.735 165.669 277.735Z" fill="white"/>
<path d="M163.223 277.243L153.074 232.597C152.255 229.894 149.779 228.057 146.926 228.057H146.22C143.368 228.057 141.041 229.456 140.21 232.2H138.942C139.929 228.952 142.836 226.856 146.22 226.856H146.926C150.311 226.856 153.247 229.042 154.228 232.29L164.389 276.979L163.223 277.249V277.243Z" fill="#FF8A53"/>
<path d="M129.918 277.243L128.752 276.979L136.658 242.276H137.878L129.918 277.243Z" fill="#FF8A53"/>
<g clip-path="url(#clip1_1554_26596)">
<path d="M410.016 321.407V293.485H381.647V316.418C381.647 323.24 384.315 329.787 389.079 334.653L419.714 365.936L430.176 357.129L410.01 321.401L410.016 321.407Z" fill="#EE9367"/>
<path d="M439.845 257.687H328.99C328.99 276.754 338.571 293.585 353.161 303.598L361.043 368.618H374.705L381.653 304.559C432.716 304.559 439.851 277.381 439.851 257.687H439.845Z" fill="#EE9367"/>
<path d="M367.355 268.749L344.188 318.52H419.323L404.277 267.637L367.355 268.749Z" fill="#485925"/>
<path d="M430.176 357.134L419.714 365.942L422.394 374.328C422.943 376.049 422.832 377.343 422.172 378.515C421.29 380.078 419.562 380.974 417.77 381.039L411.616 381.267C407.412 381.419 404.125 384.962 404.283 389.184H419.65C420.823 389.184 421.962 388.804 422.907 388.107L443.342 372.887L430.176 357.146V357.134Z" fill="black"/>
<path d="M372.708 185.477V193.177C372.708 196.222 374.588 198.822 377.25 199.877V205.141H385.833V199.877C388.495 198.822 390.375 196.222 390.375 193.177V185.477H372.708Z" fill="#EE9367"/>
<path d="M384.42 202.09C353.809 202.09 328.99 226.984 328.99 257.687C328.464 290.094 353.155 303.598 353.155 303.598L374.828 289.567V268.755H388.227V289.567L414.231 304.559C414.231 304.559 438.794 291.412 439.845 257.687C439.845 226.984 415.031 202.096 384.42 202.096V202.09Z" fill="#5572D6"/>
<path d="M388.46 202.16C388.46 202.16 386.668 201.938 382.056 201.938C378.115 201.938 374.833 202.687 374.833 202.687V268.749H388.46V202.16Z" fill="white"/>
<path d="M383.194 178.273H379.889C375.925 178.273 372.708 181.5 372.708 185.476H390.375C390.375 181.5 387.158 178.273 383.194 178.273Z" fill="black"/>
<path d="M374.699 368.618V389.161H331.617C331.617 384.939 335.027 381.519 339.236 381.519H350.668C353.763 381.519 356.547 379.639 357.721 376.77L361.037 368.618H374.699Z" fill="black"/>
<path d="M432.71 247.937H423.38V265.962H432.71V247.937Z" fill="#9AC6EF"/>
<path d="M344.187 247.937H334.857V265.962H344.187V247.937Z" fill="#9AC6EF"/>
<path d="M388.46 202.23C388.46 202.23 394.778 202.523 399.548 204.192L388.46 215.096V202.236V202.23Z" fill="#9AC6EF"/>
<path d="M374.834 202.921C374.834 202.921 368.703 203.407 364.237 205.896L374.834 216.8V202.927V202.921Z" fill="#9AC6EF"/>
<path d="M386.242 209.667L382.464 264.339L379.639 264.345L377.046 209.667" fill="#9AC6EF"/>
<path d="M381.647 214.276C384.185 214.276 386.242 212.213 386.242 209.668C386.242 207.122 384.185 205.059 381.647 205.059C379.109 205.059 377.052 207.122 377.052 209.668C377.052 212.213 379.109 214.276 381.647 214.276Z" fill="black"/>
<path d="M347.988 271.836L344.181 265.956H334.852V276.895C334.746 277.211 334.752 277.545 334.852 277.838V277.914H334.881C335.033 278.295 335.336 278.617 335.751 278.769C336.486 279.044 337.298 278.699 337.619 277.996C337.73 278.465 338.069 278.869 338.553 279.05C339.254 279.308 340.019 279.009 340.375 278.377C340.527 278.751 340.83 279.062 341.233 279.214C342.004 279.501 342.862 279.109 343.148 278.33C343.148 278.318 343.154 278.306 343.16 278.289C343.276 278.746 343.609 279.138 344.082 279.314C344.853 279.601 345.711 279.208 345.997 278.429C346.149 278.014 346.108 277.574 345.915 277.211L345.174 272.72L346.826 273.335C347.13 273.446 347.474 273.405 347.737 273.218C348.181 272.901 348.292 272.286 347.976 271.836H347.988Z" fill="#EE9367"/>
<path d="M414.062 287.331C414.062 279.8 420.152 273.692 427.66 273.692C435.168 273.692 441.258 279.8 441.258 287.331" stroke="#B7ACF8" stroke-miterlimit="10"/>
<path d="M454.984 287.331H400.324V323.211H454.984V287.331Z" fill="black"/>
<path d="M419.504 271.836L423.31 265.956H432.64V276.895C432.745 277.211 432.74 277.545 432.64 277.838V277.914H432.611C432.459 278.295 432.156 278.617 431.741 278.769C431.006 279.044 430.194 278.699 429.873 277.996C429.762 278.465 429.423 278.869 428.939 279.05C428.238 279.308 427.473 279.009 427.117 278.377C426.965 278.751 426.662 279.062 426.259 279.214C425.488 279.501 424.63 279.109 424.344 278.33C424.344 278.318 424.338 278.306 424.332 278.289C424.215 278.746 423.883 279.138 423.41 279.314C422.639 279.601 421.781 279.208 421.495 278.429C421.343 278.014 421.384 277.574 421.576 277.211L422.318 272.72L420.666 273.335C420.362 273.446 420.018 273.405 419.755 273.218C419.311 272.901 419.2 272.286 419.515 271.836H419.504Z" fill="#EE9367"/>
<path d="M427.654 301.092C430.229 301.092 432.319 303.189 432.319 305.771V323.211H422.989V305.771C422.989 303.189 425.079 301.092 427.654 301.092Z" fill="#B7ACF8"/>
<path d="M399.466 184.785C397.539 181.026 394.317 178.443 393.896 178.139C391.135 176.154 387.597 174.842 385.874 174.731C375.435 174.069 372.586 179.404 372.417 185.289L381.6 185.552L385.098 195.994L405.801 196.538" fill="black"/>
<path d="M394.953 184.475C397.316 184.475 399.233 182.553 399.233 180.183C399.233 177.812 397.316 175.89 394.953 175.89C392.589 175.89 390.673 177.812 390.673 180.183C390.673 182.553 392.589 184.475 394.953 184.475Z" fill="black"/>
<path d="M400.412 190.319C402.775 190.319 404.692 188.398 404.692 186.027C404.692 183.656 402.775 181.734 400.412 181.734C398.048 181.734 396.132 183.656 396.132 186.027C396.132 188.398 398.048 190.319 400.412 190.319Z" fill="black"/>
<path d="M404.055 197.54C406.419 197.54 408.335 195.618 408.335 193.248C408.335 190.877 406.419 188.955 404.055 188.955C401.691 188.955 399.775 190.877 399.775 193.248C399.775 195.618 401.691 197.54 404.055 197.54Z" fill="black"/>
<path d="M398.263 198.805C400.627 198.805 402.543 196.883 402.543 194.512C402.543 192.142 400.627 190.22 398.263 190.22C395.9 190.22 393.984 192.142 393.984 194.512C393.984 196.883 395.9 198.805 398.263 198.805Z" fill="black"/>
<path d="M392.834 199.736C395.197 199.736 397.113 197.814 397.113 195.443C397.113 193.073 395.197 191.151 392.834 191.151C390.47 191.151 388.554 193.073 388.554 195.443C388.554 197.814 390.47 199.736 392.834 199.736Z" fill="black"/>
<path d="M388.554 199.613C390.918 199.613 392.834 197.691 392.834 195.32C392.834 192.95 390.918 191.028 388.554 191.028C386.19 191.028 384.274 192.95 384.274 195.32C384.274 197.691 386.19 199.613 388.554 199.613Z" fill="black"/>
<path d="M387.801 181.758C390.165 181.758 392.081 179.836 392.081 177.465C392.081 175.095 390.165 173.173 387.801 173.173C385.438 173.173 383.521 175.095 383.521 177.465C383.521 179.836 385.438 181.758 387.801 181.758Z" fill="black"/>
</g>
<path d="M445.265 167.433C443.348 167.433 441.593 166.702 440.585 165.418C440.016 164.784 440.098 164.378 440.829 163.777C441.186 163.484 441.414 163.37 441.609 163.37C441.901 163.37 442.015 163.565 442.21 163.939C442.941 165.402 444.095 166.165 445.298 166.149C446.321 166.133 447.231 165.467 447.378 164.573C447.573 163.452 446.841 162.704 445.005 162.184C442.243 161.355 441.17 160.218 441.528 158.203C441.836 156.367 443.754 155.083 446.11 155.083C447.898 155.083 449.539 155.798 450.433 156.903C451.001 157.472 450.953 157.894 450.335 158.447C449.994 158.772 449.75 158.902 449.571 158.902C449.328 158.902 449.181 158.739 448.938 158.349C448.125 156.952 447.231 156.334 446.078 156.318C445.086 156.318 444.209 156.968 444.046 157.845C443.868 158.853 444.566 159.405 446.565 159.974C449.214 160.738 450.286 162.087 449.913 164.232C449.571 166.133 447.67 167.433 445.265 167.433ZM453.991 167.352C451.846 167.384 450.416 165.353 450.904 162.655C451.375 160.039 453.39 158.138 456.023 158.138C457.534 158.138 458.265 158.495 458.818 158.495C459.191 158.495 459.403 158.463 459.679 158.382C459.874 158.317 460.118 158.235 460.329 158.235C460.686 158.219 460.865 158.463 460.816 158.772C460.784 158.983 460.686 159.129 460.459 159.373C460.118 159.665 460.004 160.039 459.906 160.559L459.143 164.833C459.061 165.337 459.143 165.499 459.728 165.45C460.069 165.515 460.215 165.678 460.199 165.954C460.183 166.295 459.939 166.507 459.516 166.637L458.753 166.897L457.339 167.27C456.819 167.417 456.624 167.059 456.689 166.312C456.705 166.019 456.543 165.97 456.315 166.198C455.665 166.88 454.869 167.352 453.991 167.352ZM453.325 162.103C453 164.004 453.715 165.662 455.064 165.662C455.99 165.662 456.835 164.768 457.014 163.744L457.485 161.177C457.68 160.072 457.485 159.405 455.958 159.422C454.609 159.438 453.618 160.543 453.325 162.103ZM461.303 167.173L460.897 167.205C460.507 167.205 460.295 166.962 460.36 166.604C460.409 166.344 460.572 166.165 460.929 166.019C461.384 165.857 461.498 165.629 461.595 165.077L462.424 160.315C462.505 159.844 462.457 159.698 462.002 159.487C461.709 159.308 461.612 159.113 461.644 158.82C461.677 158.495 461.92 158.3 462.294 158.317L463.009 158.333H464.212C464.537 158.333 464.683 158.495 464.683 158.788V159.032C464.683 159.21 464.829 159.275 464.975 159.097C465.43 158.544 466.113 158.122 466.844 158.154C467.64 158.17 468.03 158.674 467.884 159.47C467.722 160.364 467.25 161.03 466.763 160.982C466.584 160.982 466.503 160.9 466.373 160.77C466.21 160.527 466.048 160.397 465.788 160.397C465.203 160.38 464.618 160.835 464.472 161.615L463.838 165.255C463.757 165.71 463.838 165.857 464.374 166.035C464.732 166.198 464.845 166.377 464.829 166.653C464.797 166.978 464.504 167.173 464.082 167.173H461.303ZM470.575 167.352C468.43 167.384 467 165.353 467.487 162.655C467.958 160.039 469.973 158.138 472.606 158.138C474.117 158.138 474.848 158.495 475.401 158.495C475.775 158.495 475.986 158.463 476.262 158.382C476.457 158.317 476.701 158.235 476.912 158.235C477.27 158.219 477.448 158.463 477.4 158.772C477.367 158.983 477.27 159.129 477.042 159.373C476.701 159.665 476.587 160.039 476.49 160.559L475.726 164.833C475.645 165.337 475.726 165.499 476.311 165.45C476.652 165.515 476.798 165.678 476.782 165.954C476.766 166.295 476.522 166.507 476.1 166.637L475.336 166.897L473.922 167.27C473.402 167.417 473.207 167.059 473.272 166.312C473.288 166.019 473.126 165.97 472.898 166.198C472.248 166.88 471.452 167.352 470.575 167.352ZM469.908 162.103C469.583 164.004 470.298 165.662 471.647 165.662C472.573 165.662 473.418 164.768 473.597 163.744L474.068 161.177C474.263 160.072 474.068 159.405 472.541 159.422C471.192 159.438 470.201 160.543 469.908 162.103Z" fill="#54483D"/>
<path d="M248.472 158.327C247.824 158.327 247.365 157.976 247.365 157.328C247.365 156.896 247.581 156.572 248.175 156.329C249.201 155.951 249.39 155.465 249.363 154.358V142.667C249.39 141.56 249.174 141.074 248.148 140.669C247.554 140.426 247.365 140.102 247.365 139.67C247.365 139.022 247.824 138.671 248.472 138.698H260.19C261.108 138.698 261.648 139.022 261.891 139.751C262.107 140.426 262.728 142.316 262.728 143.234C262.728 143.747 262.377 144.044 261.972 144.044C261.27 144.044 260.46 143.369 259.785 142.856C258.327 141.803 257.193 141.209 255.411 141.236C253.872 141.263 253.251 142.019 253.251 144.26V145.691C253.251 146.339 253.413 146.501 254.196 146.501L258.84 146.528C259.515 146.528 260.001 146.744 260.001 147.5C260.001 148.121 259.515 149.066 258.975 149.66C258.678 150.011 258.408 150.2 258.03 150.2C256.95 150.2 255.249 149.174 254.142 149.174C253.683 149.174 253.278 149.363 253.278 150.119V154.034C253.278 155.384 254.169 155.735 256.086 155.735C257.598 155.735 258.894 155.114 260.163 154.196C260.946 153.629 262.053 152.63 262.809 152.63C263.295 152.63 263.619 152.954 263.619 153.494C263.619 154.223 263.16 155.789 262.647 156.842C262.242 157.787 261.891 158.327 261 158.327H248.472ZM270.618 158.678C266.811 158.678 264.138 155.816 264.138 151.739C264.138 146.798 267.621 143.477 271.887 143.477C272.67 143.477 273.588 143.612 274.074 143.72C274.236 143.774 274.425 143.828 274.56 143.828C274.857 143.828 274.911 143.558 274.911 143.126V142.748C274.938 141.614 274.695 141.128 273.723 140.75C273.048 140.48 272.832 140.156 272.832 139.751C272.859 139.103 273.318 138.779 274.074 138.806H277.476C278.205 138.806 278.529 139.157 278.529 140.156V154.574C278.502 155.681 278.718 156.113 279.42 156.464C280.014 156.734 280.203 157.031 280.203 157.436C280.203 158.03 279.771 158.354 279.15 158.327H275.991C275.424 158.327 275.181 157.922 275.019 157.436C274.857 156.95 274.506 156.869 274.155 157.301C273.426 158.111 272.103 158.678 270.618 158.678ZM267.864 150.794C267.864 153.197 269.295 155.681 271.806 155.681C273.453 155.681 274.911 154.547 274.938 152.927L274.992 149.012C275.019 146.879 273.993 145.907 271.833 145.988C269.619 146.069 267.864 148.067 267.864 150.794ZM286.596 158.678C282.789 158.678 280.116 155.816 280.116 151.739C280.116 146.798 283.599 143.477 287.865 143.477C288.648 143.477 289.566 143.612 290.052 143.72C290.214 143.774 290.403 143.828 290.538 143.828C290.835 143.828 290.889 143.558 290.889 143.126V142.748C290.916 141.614 290.673 141.128 289.701 140.75C289.026 140.48 288.81 140.156 288.81 139.751C288.837 139.103 289.296 138.779 290.052 138.806H293.454C294.183 138.806 294.507 139.157 294.507 140.156V154.574C294.48 155.681 294.696 156.113 295.398 156.464C295.992 156.734 296.181 157.031 296.181 157.436C296.181 158.03 295.749 158.354 295.128 158.327H291.969C291.402 158.327 291.159 157.922 290.997 157.436C290.835 156.95 290.484 156.869 290.133 157.301C289.404 158.111 288.081 158.678 286.596 158.678ZM283.842 150.794C283.842 153.197 285.273 155.681 287.784 155.681C289.431 155.681 290.889 154.547 290.916 152.927L290.97 149.012C290.997 146.879 289.971 145.907 287.811 145.988C285.597 146.069 283.842 148.067 283.842 150.794ZM298.202 163.295C297.77 163.295 297.527 162.971 297.527 162.674C297.527 162.35 297.77 162.107 297.986 161.945L301.577 159.029C302.144 158.57 302.09 158.111 301.766 157.436C300.2 154.061 298.688 150.632 297.23 147.203C296.906 146.447 296.69 146.15 296.204 145.88C295.664 145.583 295.529 145.205 295.529 144.908C295.529 144.368 295.934 143.774 296.744 143.774H301.793C302.495 143.774 303.008 144.125 303.008 144.827C303.008 145.313 302.738 145.556 301.847 145.961C300.902 146.42 301.226 147.014 301.496 147.824C302.171 149.795 302.954 151.739 304.034 154.034C304.304 154.601 304.412 154.574 304.655 154.007C305.6 151.793 306.329 149.714 306.842 147.986C307.166 146.933 307.22 146.555 306.275 145.988C305.87 145.745 305.519 145.394 305.519 144.854C305.519 144.125 305.978 143.774 306.653 143.774H310.649C311.297 143.774 311.756 144.125 311.756 144.773C311.756 145.151 311.648 145.475 311.081 145.853C310.595 146.204 310.163 146.717 309.758 147.932C308.705 151.064 307.517 154.034 306.248 156.896C305.384 158.867 304.439 160.703 303.224 162.512C302.819 163.079 302.387 163.295 301.739 163.295H298.202ZM313.797 146.285C313.149 146.663 312.69 146.555 312.312 146.042C312.015 145.61 312.123 145.232 312.528 144.935C313.365 144.314 313.878 143.801 313.878 143.207C313.878 142.964 313.743 142.775 313.392 142.667C312.528 142.397 312.069 141.749 312.069 140.804C312.069 139.481 313.095 138.509 314.337 138.509C315.714 138.509 316.713 139.508 316.713 141.425C316.713 143.774 315.039 145.583 313.797 146.285ZM321.455 158.705C319.268 158.678 317.135 157.895 316.163 157.058C315.218 156.221 315.245 155.357 316.325 153.98C316.541 153.683 316.784 153.521 317.081 153.521C317.513 153.521 317.864 153.953 318.539 154.655C319.808 155.978 320.942 156.518 322.022 156.518C323.399 156.518 324.425 155.708 324.425 154.817C324.425 153.818 323.534 153.143 320.645 152.36C317.297 151.442 315.866 150.281 315.866 148.013C315.866 145.421 318.404 143.369 321.968 143.369C323.885 143.369 325.991 144.098 326.936 144.989C327.746 145.745 327.665 146.528 326.747 147.824C326.531 148.094 326.315 148.229 326.045 148.229C325.721 148.229 325.451 147.878 324.587 147.041C323.48 146.015 322.481 145.556 321.455 145.556C320.321 145.556 319.376 146.231 319.376 147.176C319.376 148.148 320.267 148.634 323.129 149.39C326.585 150.281 327.962 151.604 327.962 154.061C327.962 156.869 325.046 158.759 321.455 158.705ZM241.392 190.327C240.744 190.327 240.285 189.976 240.285 189.328C240.285 188.896 240.501 188.572 241.095 188.329C242.121 187.951 242.31 187.465 242.283 186.358V174.667C242.31 173.56 242.094 173.074 241.068 172.669C240.474 172.426 240.285 172.102 240.285 171.67C240.285 171.022 240.744 170.671 241.392 170.698H249.438C253.353 170.698 256.107 173.209 256.107 176.665C256.107 179.959 253.434 182.497 249.384 183.523C248.358 183.793 247.467 184.036 246.684 184.279C246.279 184.387 246.117 184.549 246.117 185.008V186.358C246.09 187.465 246.333 187.951 247.575 188.356C248.277 188.599 248.52 188.923 248.52 189.382C248.52 190.003 247.953 190.354 247.197 190.354L246.09 190.327H241.392ZM246.171 180.904C246.171 181.255 246.306 181.39 246.63 181.39C247.197 181.39 248.115 181.147 248.952 180.796C250.464 180.148 251.922 179.041 251.922 177.151C251.922 174.91 250.383 173.344 248.223 173.344H246.9C246.252 173.371 246.171 173.56 246.171 174.208V180.904ZM261.869 190.597C258.764 190.597 256.577 188.545 256.577 185.602C256.577 182.686 259.358 180.553 262.436 180.553C263.624 180.553 264.677 180.877 265.136 180.877C265.406 180.877 265.514 180.742 265.514 180.472C265.514 179.311 264.677 178.015 262.841 178.015C261.491 178.015 260.168 178.771 258.872 179.662C258.143 180.094 257.711 179.905 257.333 179.122C256.685 177.691 256.793 176.881 257.657 176.476C258.818 175.882 261.005 175.477 262.679 175.477C266.756 175.477 268.781 177.124 269.429 180.931L270.131 185.116C270.455 187.06 270.887 187.735 271.67 188.464C271.994 188.734 272.129 189.058 272.129 189.436C272.129 190.057 271.454 190.462 270.347 190.462C269.051 190.462 268.187 190.138 267.539 189.355C267.08 188.896 266.891 188.869 266.351 189.247C265.001 190.192 263.408 190.597 261.869 190.597ZM260.357 185.386C260.357 186.763 261.464 188.14 263.3 188.14C265.406 188.14 266.81 187.195 266.54 185.872L266.243 184.387C266.027 183.334 265.649 182.821 263.732 182.821C261.329 182.821 260.357 184.198 260.357 185.386ZM273.717 190.327C273.096 190.327 272.664 190.003 272.664 189.409C272.664 189.004 272.88 188.707 273.474 188.437C274.176 188.113 274.365 187.681 274.338 186.574V179.527C274.365 178.447 274.149 177.988 273.339 177.637C272.772 177.367 272.61 177.07 272.61 176.665C272.61 176.071 273.015 175.747 273.636 175.774H276.957C277.47 175.774 277.767 176.044 277.929 176.638L278.037 176.989C278.118 177.259 278.361 177.259 278.577 177.016C279.576 175.936 280.44 175.639 281.25 175.639C282.222 175.639 282.951 176.152 282.951 177.772C282.951 179.365 282.33 180.742 281.601 180.742C281.304 180.742 281.007 180.526 280.71 180.04C280.278 179.365 280.008 179.095 279.333 179.095C278.469 179.095 277.929 179.77 277.929 180.823V186.466C277.902 187.6 278.118 188.059 279.009 188.383C279.738 188.653 279.981 188.977 279.981 189.382C279.981 190.003 279.468 190.327 278.712 190.327H273.717ZM290.911 190.651C286.861 190.651 283.243 187.6 283.135 183.253C282.973 178.528 286.996 175.45 290.641 175.45C294.313 175.45 297.31 178.123 297.31 181.12C297.31 182.2 296.716 182.956 295.744 183.226C294.529 183.55 293.422 183.685 292.315 183.928C291.073 184.198 289.804 184.792 289.102 185.494C288.832 185.737 288.643 185.872 288.643 186.061C288.643 186.25 288.778 186.52 289.048 186.736C289.723 187.411 290.776 187.708 291.775 187.708C293.368 187.708 294.556 187.114 295.96 185.98C296.527 185.494 296.959 185.494 297.364 185.926C297.877 186.439 297.85 186.952 297.364 187.6C296.041 189.463 293.395 190.651 290.911 190.651ZM286.699 181.822C286.699 182.902 286.942 183.766 287.374 183.766C287.509 183.766 287.698 183.685 287.968 183.496C289.021 182.713 290.776 181.822 292.126 181.417C292.936 181.174 293.395 180.823 293.395 180.31C293.395 179.23 291.883 177.961 290.128 177.961C288.292 177.961 286.699 179.608 286.699 181.822ZM298.839 190.327C298.218 190.327 297.786 190.003 297.786 189.409C297.786 189.004 298.002 188.707 298.596 188.437C299.298 188.113 299.487 187.681 299.46 186.574V179.527C299.487 178.447 299.271 177.988 298.461 177.637C297.894 177.367 297.732 177.07 297.732 176.665C297.732 176.071 298.137 175.747 298.758 175.774H301.917C302.538 175.774 302.835 176.044 303.078 176.908C303.159 177.205 303.456 177.259 303.699 176.989C304.752 175.936 306.075 175.369 307.452 175.369C310.935 175.369 312.663 177.151 312.663 180.769V186.574C312.636 187.681 312.825 188.113 313.527 188.437C314.121 188.707 314.337 189.004 314.337 189.409C314.337 190.003 313.905 190.327 313.284 190.327H308.262C307.533 190.327 307.02 189.976 307.02 189.355C307.02 188.95 307.263 188.626 307.965 188.356C308.829 188.005 309.045 187.546 309.018 186.385L309.045 181.471C309.045 179.284 308.127 178.312 305.994 178.312C304.212 178.312 303.078 179.581 303.078 181.606V186.385C303.051 187.546 303.267 188.005 304.131 188.356C304.833 188.626 305.076 188.95 305.076 189.355C305.076 189.976 304.563 190.327 303.834 190.327H298.839ZM318.082 190.327C316.246 190.246 315.463 189.328 315.463 187.276C315.463 186.196 315.652 184.576 315.868 182.794C316.084 181.093 316.3 179.662 316.3 178.798C316.3 178.069 316.111 177.961 314.815 177.988C313.897 178.015 313.708 177.664 313.708 177.016C313.708 176.503 313.951 176.314 314.356 176.071C315.139 175.612 315.598 175.315 316.084 174.802C316.516 174.343 316.948 173.722 317.461 172.777C317.704 172.345 317.974 172.21 318.433 172.21C319.027 172.21 319.297 172.426 319.27 173.047L319.189 175.126C319.162 175.72 319.297 175.774 320.242 175.774H321.322C322.051 175.774 322.267 176.098 322.267 177.043C322.267 177.961 321.916 178.204 321.106 178.204H320.08C319.324 178.204 319.243 178.258 319.243 179.203C319.216 181.93 319.162 184.495 319.162 186.682C319.162 187.6 319.459 187.843 320.917 188.194C321.997 188.464 322.456 188.545 322.456 189.355C322.456 190.057 322.078 190.327 321.295 190.327C320.026 190.327 318.784 190.354 318.082 190.327ZM328.535 190.705C326.348 190.678 324.215 189.895 323.243 189.058C322.298 188.221 322.325 187.357 323.405 185.98C323.621 185.683 323.864 185.521 324.161 185.521C324.593 185.521 324.944 185.953 325.619 186.655C326.888 187.978 328.022 188.518 329.102 188.518C330.479 188.518 331.505 187.708 331.505 186.817C331.505 185.818 330.614 185.143 327.725 184.36C324.377 183.442 322.946 182.281 322.946 180.013C322.946 177.421 325.484 175.369 329.048 175.369C330.965 175.369 333.071 176.098 334.016 176.989C334.826 177.745 334.745 178.528 333.827 179.824C333.611 180.094 333.395 180.229 333.125 180.229C332.801 180.229 332.531 179.878 331.667 179.041C330.56 178.015 329.561 177.556 328.535 177.556C327.401 177.556 326.456 178.231 326.456 179.176C326.456 180.148 327.347 180.634 330.209 181.39C333.665 182.281 335.042 183.604 335.042 186.061C335.042 188.869 332.126 190.759 328.535 190.705Z" fill="#54483D"/>
<path d="M468.273 178.673C468.273 178.052 468.777 177.548 469.398 177.548C470.019 177.548 470.523 178.052 470.523 178.673H468.273ZM473.359 194.994L474.48 194.892L473.359 194.994ZM464.912 196.736L465.974 196.364L464.912 196.736ZM471.904 199.552L472.964 199.175L471.904 199.552ZM449.704 211.252C449.265 210.813 449.265 210.1 449.704 209.661L456.864 202.502C457.303 202.062 458.015 202.062 458.455 202.502C458.894 202.941 458.894 203.653 458.455 204.092L452.091 210.456L458.455 216.82C458.894 217.26 458.894 217.972 458.455 218.411C458.015 218.851 457.303 218.851 456.864 218.411L449.704 211.252ZM470.523 178.673C470.523 181.092 471.511 183.368 472.539 185.883L470.457 186.735C469.483 184.354 468.273 181.628 468.273 178.673H470.523ZM472.539 185.883C473.747 188.836 474.204 191.862 474.48 194.892L472.239 195.096C471.97 192.14 471.538 189.378 470.457 186.735L472.539 185.883ZM474.48 194.892C474.795 198.36 472.803 200.693 470.254 201.185C467.737 201.67 464.967 200.297 463.85 197.108L465.974 196.364C466.74 198.551 468.459 199.239 469.828 198.975C471.166 198.717 472.457 197.491 472.239 195.096L474.48 194.892ZM463.85 197.108C463.721 196.738 463.607 196.353 463.552 195.981C463.499 195.616 463.487 195.164 463.664 194.72C464.088 193.657 465.175 193.44 466.058 193.44V195.69C465.737 195.69 465.612 195.733 465.594 195.741C465.593 195.741 465.624 195.728 465.665 195.687C465.707 195.645 465.737 195.596 465.755 195.552C465.784 195.479 465.754 195.484 465.779 195.655C465.802 195.819 465.863 196.048 465.974 196.364L463.85 197.108ZM466.058 193.44C469.735 193.44 471.934 196.279 472.964 199.175L470.844 199.929C469.947 197.406 468.327 195.69 466.058 195.69V193.44ZM472.964 199.175C474.069 202.284 473.606 204.805 471.965 206.708C470.407 208.515 467.921 209.603 465.314 210.286C460.076 211.659 453.573 211.581 450.5 211.581V209.331C453.655 209.331 459.842 209.394 464.743 208.11C467.206 207.465 469.152 206.525 470.261 205.239C471.287 204.049 471.726 202.411 470.844 199.929L472.964 199.175Z" fill="#F9F4F2"/>
<path d="M116.569 160.173C116.146 160.173 115.886 159.945 115.935 159.555C115.951 159.295 116.114 159.084 116.504 158.938C117.04 158.759 117.235 158.58 117.365 157.995L118.681 150.553C118.779 149.968 118.73 149.74 118.259 149.545C117.901 149.35 117.804 149.172 117.82 148.863C117.853 148.522 118.129 148.31 118.568 148.31H125.734C126.238 148.31 126.449 148.554 126.611 149.172C126.774 150.033 127.034 151.154 126.953 151.544C126.904 151.804 126.725 151.999 126.449 151.983C126.075 151.967 125.636 151.447 125.019 150.618C124.401 149.724 124.255 149.578 122.695 149.578C121.623 149.594 121.314 149.789 121.184 150.439L120.843 152.308C120.745 152.73 120.826 152.909 121.249 152.909H124.84C125.214 152.909 125.36 153.104 125.295 153.413C125.246 153.722 124.986 154.258 124.694 154.599C124.466 154.859 124.304 154.989 123.979 154.957C123.443 154.924 122.679 154.177 121.103 154.193C120.648 154.193 120.42 154.485 120.323 155.152L119.884 157.638C119.754 158.434 119.868 158.678 121.411 158.678C122.971 158.662 123.361 158.499 124.19 157.654C125.279 156.695 125.474 156.435 125.896 156.435C126.205 156.452 126.384 156.679 126.303 157.069C126.221 157.41 125.766 158.304 125.49 158.905C125.1 159.929 124.808 160.173 124.206 160.173H116.569ZM127.112 160.173L126.705 160.205C126.299 160.205 126.088 159.962 126.153 159.604C126.202 159.344 126.364 159.182 126.722 159.035C127.193 158.857 127.307 158.645 127.388 158.077L128.834 150.082C128.915 149.594 128.85 149.432 128.379 149.237C128.07 149.042 127.957 148.847 128.005 148.554C128.038 148.213 128.298 148.018 128.672 148.034L129.419 148.05H130.703C131.207 148.05 131.418 148.327 131.337 148.814L129.647 158.174C129.565 158.645 129.582 158.792 130.053 158.97C130.378 159.149 130.492 159.344 130.459 159.637C130.427 159.962 130.183 160.173 129.809 160.173H127.112ZM133.064 150.342C132.69 150.342 132.511 150.098 132.576 149.675C132.722 148.895 133.47 148.229 134.282 148.229C135.241 148.229 135.859 148.895 135.712 149.789C135.631 150.195 135.387 150.342 135.014 150.342H133.064ZM130.837 159.604C130.886 159.328 131.049 159.165 131.406 159.019C131.861 158.84 131.975 158.613 132.072 158.044L132.885 153.315C132.966 152.844 132.901 152.698 132.446 152.487C132.137 152.308 132.024 152.113 132.072 151.837C132.105 151.495 132.349 151.3 132.722 151.317L133.454 151.333H134.721C135.306 151.333 135.469 151.625 135.371 152.178L134.315 158.223C134.234 158.694 134.25 158.84 134.705 159.019C135.014 159.182 135.111 159.36 135.095 159.653C135.062 159.978 134.819 160.173 134.461 160.173H131.78L131.374 160.205C130.984 160.205 130.772 159.962 130.837 159.604ZM135.879 159.198C135.408 158.743 135.457 158.304 135.863 157.687C136.025 157.41 136.22 157.183 136.48 157.199C136.675 157.215 136.822 157.394 137.147 157.784C137.699 158.629 138.577 159.182 139.487 159.182C140.202 159.182 140.77 158.792 140.868 158.239C140.998 157.524 140.445 156.939 138.95 156.435C136.87 155.704 136.269 154.859 136.497 153.478C136.74 152.032 138.203 151.057 140.12 151.057C141.274 151.057 142.72 151.56 143.387 152.324C143.89 152.763 143.874 153.072 143.452 153.77C143.273 154.03 143.11 154.128 142.948 154.112C142.785 154.095 142.558 153.9 142.282 153.592C141.745 152.763 141.047 152.243 140.202 152.243C139.487 152.243 138.934 152.665 138.82 153.234C138.723 153.868 139.194 154.29 140.754 154.81C142.85 155.542 143.517 156.435 143.24 158.012C142.964 159.474 141.502 160.417 139.535 160.417C138.008 160.417 136.594 159.929 135.879 159.198ZM148.282 160.433C145.585 160.384 143.635 158.223 144.122 155.265C144.528 152.893 146.592 151.057 149.03 151.073C151.548 151.073 153.596 153.218 153.076 155.477C152.93 156.11 152.426 156.533 151.695 156.533C151.321 156.533 150.996 156.484 150.638 156.435C149.29 156.224 148.006 156.289 146.917 156.679C146.771 156.728 146.69 156.793 146.673 156.89C146.657 157.004 146.738 157.167 146.803 157.297C147.112 158.239 148.103 158.775 149.095 158.759C149.972 158.743 150.866 158.369 151.565 157.735C151.89 157.524 152.052 157.557 152.312 157.93C152.54 158.239 152.458 158.45 152.166 158.808C151.305 159.815 149.826 160.449 148.282 160.433ZM146.348 155.087C146.332 155.347 146.381 155.574 146.56 155.574C146.673 155.574 146.787 155.493 146.901 155.428C147.681 155.07 148.786 154.875 150.248 155.07C150.687 155.103 150.85 154.957 150.85 154.518C150.85 153.624 149.972 152.47 148.802 152.438C147.307 152.405 146.332 154.095 146.348 155.087Z" fill="#54483D"/>
<path d="M131.615 171.673C131.615 171.052 131.111 170.548 130.49 170.548C129.868 170.548 129.365 171.052 129.365 171.673H131.615ZM126.528 187.994L125.408 187.892L126.528 187.994ZM134.976 189.736L133.914 189.364L134.976 189.736ZM127.984 192.552L126.924 192.175L127.984 192.552ZM150.183 204.252C150.623 203.813 150.623 203.1 150.183 202.661L143.024 195.502C142.585 195.062 141.872 195.062 141.433 195.502C140.994 195.941 140.994 196.653 141.433 197.092L147.797 203.456L141.433 209.82C140.994 210.26 140.994 210.972 141.433 211.411C141.872 211.851 142.585 211.851 143.024 211.411L150.183 204.252ZM129.365 171.673C129.365 174.092 128.377 176.368 127.348 178.883L129.431 179.735C130.405 177.354 131.615 174.628 131.615 171.673H129.365ZM127.348 178.883C126.14 181.836 125.684 184.862 125.408 187.892L127.649 188.096C127.918 185.14 128.35 182.378 129.431 179.735L127.348 178.883ZM125.408 187.892C125.093 191.36 127.085 193.693 129.634 194.185C132.151 194.67 134.921 193.297 136.037 190.108L133.914 189.364C133.148 191.551 131.428 192.239 130.059 191.975C128.722 191.717 127.431 190.491 127.649 188.096L125.408 187.892ZM136.037 190.108C136.167 189.738 136.281 189.353 136.335 188.981C136.389 188.616 136.4 188.164 136.223 187.72C135.8 186.657 134.713 186.44 133.83 186.44V188.69C134.151 188.69 134.276 188.733 134.294 188.741C134.295 188.741 134.263 188.728 134.223 188.687C134.181 188.645 134.151 188.596 134.133 188.552C134.104 188.479 134.134 188.484 134.109 188.655C134.085 188.819 134.024 189.048 133.914 189.364L136.037 190.108ZM133.83 186.44C130.153 186.44 127.954 189.279 126.924 192.175L129.044 192.929C129.941 190.406 131.561 188.69 133.83 188.69V186.44ZM126.924 192.175C125.818 195.284 126.282 197.805 127.923 199.708C129.481 201.515 131.967 202.603 134.574 203.286C139.812 204.659 146.315 204.581 149.388 204.581V202.331C146.233 202.331 140.045 202.394 135.144 201.11C132.682 200.465 130.736 199.525 129.627 198.239C128.601 197.049 128.161 195.411 129.044 192.929L126.924 192.175Z" fill="#F9F4F2"/>
</g>
<defs>
<clipPath id="clip0_1554_26596">
<rect width="414" height="266" fill="white" transform="translate(85 127.327)"/>
</clipPath>
<clipPath id="clip1_1554_26596">
<rect width="126" height="216" fill="white" transform="translate(328.984 173.173)"/>
</clipPath>
</defs>
</svg>
